<svg xmlns="http://www.w3.org/2000/svg" width="148.486" height="21.558"><g data-name="Group 141740"><g data-name="Group 141733" fill="#d9232d"><path data-name="Path 260517" d="M95.374 13.91v7.647h-4.261V.1h9.41a3.151 3.151 0 0 1 2.206.85 2.725 2.725 0 0 1 .939 2.08v5.529a4.02 4.02 0 0 1-1.636 3.361 4.045 4.045 0 0 1 1.636 3.386v6.252h-4.261v-6.253a1.312 1.312 0 0 0-.456-1 1.583 1.583 0 0 0-1.065-.393Zm2.511-3.969a1.552 1.552 0 0 0 1.065-.406 1.236 1.236 0 0 0 .456-.976V4.073h-4.033v5.872Z"/><path data-name="Path 260518" d="M110.985 13.91v7.647h-4.259V.1h9.41a3.151 3.151 0 0 1 2.206.85 2.725 2.725 0 0 1 .939 2.08v5.529a4.02 4.02 0 0 1-1.636 3.361 4.045 4.045 0 0 1 1.636 3.386v6.252h-4.261v-6.253a1.312 1.312 0 0 0-.456-1 1.583 1.583 0 0 0-1.065-.393Zm2.511-3.969a1.552 1.552 0 0 0 1.065-.406 1.236 1.236 0 0 0 .456-.976V4.073h-4.033v5.872Z"/><path data-name="Path 260519" d="m126.293 17.208-.862 4.35h-4.313L125.278.1h5.669l4.147 21.458h-4.325l-.837-4.35Zm.773-3.969h2.08l-1.04-9.144Z"/><path data-name="Path 260520" d="M144.022 14.215v7.343h-4.261v-7.33L135.284.1h4.35q.936 3.132 2.245 10.273 1.332-7.14 2.257-10.272h4.35Z"/><path data-name="Path 260521" d="M88.612 11.072v10.481h-3.487v-6.98h-9.013v6.984h-3.531c-.022-.223-.062-.443-.063-.662 0-3.032 0-6.064-.006-9.1 0-.457-.027-.825.64-.822 5.034.023 10.069.015 15.1.019a2.313 2.313 0 0 1 .356.075"/><path data-name="Path 260522" d="M87.148 8.316h-3.436V3.564h-5.9v4.725h-3.574l.769-7.566a.723.723 0 0 1 .727-.722h9.829a.815.815 0 0 1 .815.815Z"/></g><path data-name="Path 260523" d="M14.862 13.226a8.7 8.7 0 0 1-2.032 6 6.927 6.927 0 0 1-5.452 2.286 6.785 6.785 0 0 1-5.373-2.288 8.768 8.768 0 0 1-2.006-6v-3.115a8.816 8.816 0 0 1 2-6 6.748 6.748 0 0 1 5.366-2.3 6.928 6.928 0 0 1 5.458 2.3 8.71 8.71 0 0 1 2.039 6ZM13.3 10.094a7.593 7.593 0 0 0-1.572-5.005 5.352 5.352 0 0 0-4.36-1.9 5.162 5.162 0 0 0-4.261 1.9 7.747 7.747 0 0 0-1.525 5.005v3.148a7.766 7.766 0 0 0 1.528 5.032 5.179 5.179 0 0 0 4.268 1.9 5.337 5.337 0 0 0 4.36-1.89 7.673 7.673 0 0 0 1.562-5.042Z"/><path data-name="Path 260524" d="M19.714 21.236V8.295H17.36V7.006h2.354V4.928a4.732 4.732 0 0 1 1.072-3.314A3.871 3.871 0 0 1 23.791.443a6.049 6.049 0 0 1 .881.066 8.83 8.83 0 0 1 .907.184l-.2 1.3a6.245 6.245 0 0 0-.651-.125 5.84 5.84 0 0 0-.783-.046 2.428 2.428 0 0 0-1.973.815 3.46 3.46 0 0 0-.684 2.288v2.081h3.393v1.289h-3.388v12.941Z"/><path data-name="Path 260525" d="M28.341 21.236V8.295h-2.367V7.006h2.367V5.191a4.725 4.725 0 0 1 1.249-3.5A4.707 4.707 0 0 1 33.062.448a8.4 8.4 0 0 1 1.789.2 11.135 11.135 0 0 1 1.841.579l-.263 1.354a11.1 11.1 0 0 0-1.552-.513 7.2 7.2 0 0 0-1.71-.184 3.214 3.214 0 0 0-2.426.855 3.409 3.409 0 0 0-.822 2.459v1.808h3.327v1.289h-3.324v12.941Zm9.206 0h-1.578V7.006h1.578Z"/><path data-name="Path 260526" d="M47.161 20.17a4.5 4.5 0 0 0 2.762-.891 2.912 2.912 0 0 0 1.2-2.476h1.394l.026.079a3.9 3.9 0 0 1-1.578 3.3 5.872 5.872 0 0 1-3.8 1.328 5.408 5.408 0 0 1-4.491-1.992 7.976 7.976 0 0 1-1.585-5.122v-.548a7.94 7.94 0 0 1 1.591-5.1 5.39 5.39 0 0 1 4.472-2 5.665 5.665 0 0 1 3.9 1.381 4.467 4.467 0 0 1 1.497 3.619l-.026.079h-1.407a3.465 3.465 0 0 0-1.151-2.729 4.1 4.1 0 0 0-2.821-1.019 3.8 3.8 0 0 0-3.387 1.636 7.234 7.234 0 0 0-1.1 4.118v.552a7.309 7.309 0 0 0 1.092 4.152 3.81 3.81 0 0 0 3.406 1.629"/><path data-name="Path 260527" d="M61.182 21.511a5.71 5.71 0 0 1-4.441-1.973 7.2 7.2 0 0 1-1.769-5v-.723a7.422 7.422 0 0 1 1.756-5.063 5.448 5.448 0 0 1 4.255-2.012 5.271 5.271 0 0 1 4.116 1.657 6.336 6.336 0 0 1 1.5 4.419v1.342H56.552v.38a6.273 6.273 0 0 0 1.276 4.015 4.067 4.067 0 0 0 3.354 1.614 6.88 6.88 0 0 0 2.512-.408 4.937 4.937 0 0 0 1.776-1.17l.67 1.079a5.705 5.705 0 0 1-2.032 1.343 7.78 7.78 0 0 1-2.926.5m-.2-13.428a3.767 3.767 0 0 0-2.933 1.331 5.718 5.718 0 0 0-1.378 3.334l.026.065h8.338v-.394a4.529 4.529 0 0 0-1.092-3.1 3.734 3.734 0 0 0-2.959-1.246"/></g></svg>