<svg xmlns="http://www.w3.org/2000/svg" xmlns:xlink="http://www.w3.org/1999/xlink" width="1220" height="390.683" viewBox="0 0 1220 390.683">
  <defs>
    <linearGradient id="linear-gradient" x1="0.024" y1="0.5" x2="1.199" y2="0.5" gradientUnits="objectBoundingBox">
      <stop offset="0" stop-color="#d92b2c"/>
      <stop offset="1" stop-color="#fa3a3a"/>
    </linearGradient>
    <filter id="Path_277265" x="0" y="0" width="581.84" height="390.683" filterUnits="userSpaceOnUse">
      <feOffset dy="8" input="SourceAlpha"/>
      <feGaussianBlur stdDeviation="8" result="blur"/>
      <feFlood flood-color="#015fbb" flood-opacity="0.251"/>
      <feComposite operator="in" in2="blur"/>
      <feComposite in="SourceGraphic"/>
    </filter>
  </defs>
  <g id="Group_147380" data-name="Group 147380" transform="translate(-61 -158.876)">
    <path id="Path_277263" data-name="Path 277263" d="M1037.114,778.549c-12.534,2.443,138.434,4.549,337.2,4.7s370.052-1.7,382.585-4.145-138.433-4.549-337.2-4.7-370.052,1.7-382.586,4.145" transform="translate(-476.622 -244.77)" fill="#ccc"/>
    <path id="Path_277264" data-name="Path 277264" d="M4.93,778.549c-4.811,2.443,53.133,4.549,129.42,4.7s142.031-1.7,146.842-4.145-53.133-4.549-129.42-4.7-142.03,1.7-146.841,4.145" transform="translate(82.479 -244.77)" fill="#ccc"/>
    <g transform="matrix(1, 0, 0, 1, 61, 158.88)" filter="url(#Path_277265)">
      <path id="Path_277265-2" data-name="Path 277265" d="M494.653,184.249,463.128,0l-32.8,5.613L355.309,208.091,338.2,211.018,318.775,97.478c-5.127-29.963-27.691-53.464-57.821-60.494a76.4,76.4,0,0,0-30.348-.773l-10.8,1.847a77.046,77.046,0,0,0-28.426,10.817c-26.319,16.691-39.639,46.475-34.534,76.308l19.426,113.539-28.631,4.9L116.117,59.368l-32.8,5.612L0,289.861l4.667,27.275,101.96-17.445,7.355,42.987,49.17-8.413L155.8,291.278l34.056-5.827a76,76,0,0,0,47.776,33.687,77.034,77.034,0,0,0,30.4.75l10.8-1.848a76.64,76.64,0,0,0,62.107-58.45l10.742-1.838c0,.01,101.962-17.436,101.962-17.436l7.355,42.987,49.17-8.413-7.355-42.987,31.033-5.31-8.154-47.656ZM98.473,252.035l-34.127,5.839,23.849-65.908Zm193.968-12.676a27.463,27.463,0,0,1-22.8,31.382l-8.674,1.484a27.214,27.214,0,0,1-11.053-.244c-10.56-2.494-19.144-10.547-21.06-21.743L206.017,116.771c-1.911-11.17,3.367-21.363,12.668-27.338a27.2,27.2,0,0,1,10.339-3.9l8.674-1.484a27.237,27.237,0,0,1,11.048.242c10.861,2.57,19,10.73,20.859,21.6Zm153.042-46.7L411.356,198.5l23.85-65.907Z" transform="translate(24 16.01)" fill="url(#linear-gradient)"/>
    </g>
    <rect id="Rectangle_57822" data-name="Rectangle 57822" width="83.302" height="9.161" transform="translate(828.807 486.574)" fill="#e6e6e6"/>
    <path id="Path_277266" data-name="Path 277266" d="M1710.75,677.056l-4.976-2.575-1.208,2.335a4.361,4.361,0,0,1-3.855,2.356H1586.818a15.014,15.014,0,0,0-13.321,8.122l-.01.02c-.98,1.9-2.744,5.322-3.049,5.91l4.98,2.568,3.048-5.91a9.446,9.446,0,0,1,8.36-5.107h113.9a9.972,9.972,0,0,0,8.81-5.362l.011-.022,1.208-2.335" transform="translate(-766.026 -190.626)" fill="#e6e6e6"/>
    <path id="Path_277267" data-name="Path 277267" d="M1711.207,677.291,1710,679.626a7.164,7.164,0,0,1-6.338,3.87c-21.829.885-92.051.357-113.874,0a12.539,12.539,0,0,0-10.857,6.607l-3.058,5.929,2.49,1.284,3.049-5.91a9.444,9.444,0,0,1,8.359-5.107h113.9a9.971,9.971,0,0,0,8.809-5.362l.012-.022,1.208-2.335-2.488-1.288" transform="translate(-768.972 -192.149)" fill="gray"/>
    <rect id="Rectangle_57823" data-name="Rectangle 57823" width="83.302" height="4.581" transform="translate(828.807 491.155)" fill="gray"/>
    <path id="Path_277268" data-name="Path 277268" d="M1644.8,686.019a.436.436,0,1,0,.436.436.436.436,0,0,0-.436-.436m0,1.679a.436.436,0,1,0,.436.436.436.436,0,0,0-.436-.436m0,1.679a.436.436,0,1,0,.436.436.436.436,0,0,0-.436-.436m0,1.679a.436.436,0,1,0,.436.436.436.436,0,0,0-.436-.436m-2.419-5.038a.436.436,0,1,0,.436.436.436.436,0,0,0-.436-.436m0,1.679a.436.436,0,1,0,.436.436.435.435,0,0,0-.436-.436m0,1.679a.436.436,0,1,0,.436.436.436.436,0,0,0-.436-.436m0,1.679a.436.436,0,1,0,.436.436.436.436,0,0,0-.436-.436m-2.419-5.038a.436.436,0,1,0,.436.436.436.436,0,0,0-.436-.436m0,1.679a.436.436,0,1,0,.436.436.436.436,0,0,0-.436-.436m0,1.679a.436.436,0,1,0,.436.436.436.436,0,0,0-.436-.436m0,1.679a.436.436,0,1,0,.436.436.436.436,0,0,0-.436-.436m-2.419-5.038a.436.436,0,1,0,.436.436.436.436,0,0,0-.436-.436m0,1.679a.436.436,0,1,0,.436.436.435.435,0,0,0-.436-.436m0,1.679a.436.436,0,1,0,.436.436.436.436,0,0,0-.436-.436m0,1.679a.436.436,0,1,0,.436.436.436.436,0,0,0-.436-.436m-2.419-5.038a.436.436,0,1,0,.436.436.436.436,0,0,0-.436-.436m0,1.679a.436.436,0,1,0,.436.436.436.436,0,0,0-.436-.436m0,1.679a.436.436,0,1,0,.436.436.436.436,0,0,0-.436-.436m0,1.679a.436.436,0,1,0,.436.436.436.436,0,0,0-.436-.436m-2.419-5.038a.436.436,0,1,0,.436.436.436.436,0,0,0-.436-.436m0,1.679a.436.436,0,1,0,.436.436.435.435,0,0,0-.436-.436m0,1.679a.436.436,0,1,0,.436.436.436.436,0,0,0-.436-.436m0,1.679a.436.436,0,1,0,.436.436.436.436,0,0,0-.436-.436m-2.419-5.038a.436.436,0,1,0,.436.436.436.436,0,0,0-.436-.436m0,1.679a.436.436,0,1,0,.436.436.435.435,0,0,0-.436-.436m0,1.679a.436.436,0,1,0,.436.436.435.435,0,0,0-.436-.436m0,1.679a.436.436,0,1,0,.436.436.435.435,0,0,0-.436-.436m-2.419-5.038a.436.436,0,1,0,.436.436.436.436,0,0,0-.436-.436m0,1.679a.436.436,0,1,0,.436.436.436.436,0,0,0-.436-.436m0,1.679a.436.436,0,1,0,.436.436.436.436,0,0,0-.436-.436m0,1.679a.436.436,0,1,0,.436.436.436.436,0,0,0-.436-.436m19.63-5.038a.436.436,0,1,0,.436.436.436.436,0,0,0-.436-.436m0,1.679a.436.436,0,1,0,.436.436.435.435,0,0,0-.436-.436m0,1.679a.436.436,0,1,0,.436.436.436.436,0,0,0-.436-.436m0,1.679a.436.436,0,1,0,.436.436.436.436,0,0,0-.436-.436m2.7-5.038a.436.436,0,1,0,.436.436.436.436,0,0,0-.436-.436m0,1.679a.436.436,0,1,0,.436.436.436.436,0,0,0-.436-.436m0,1.679a.436.436,0,1,0,.436.436.436.436,0,0,0-.436-.436m0,1.679a.436.436,0,1,0,.436.436.436.436,0,0,0-.436-.436m2.7-5.038a.436.436,0,1,0,.436.436.436.436,0,0,0-.436-.436m0,1.679a.436.436,0,1,0,.436.436.435.435,0,0,0-.436-.436m0,1.679a.436.436,0,1,0,.436.436.436.436,0,0,0-.436-.436m0,1.679a.436.436,0,1,0,.436.436.436.436,0,0,0-.436-.436m2.7-5.038a.436.436,0,1,0,.436.436.436.436,0,0,0-.436-.436m0,1.679a.436.436,0,1,0,.436.436.435.435,0,0,0-.436-.436m0,1.679a.436.436,0,1,0,.436.436.436.436,0,0,0-.436-.436m0,1.679a.436.436,0,1,0,.436.436.436.436,0,0,0-.436-.436m2.7-5.038a.436.436,0,1,0,.436.436.435.435,0,0,0-.436-.436m0,1.679a.436.436,0,1,0,.436.436.435.435,0,0,0-.436-.436m0,1.679a.436.436,0,1,0,.436.436.435.435,0,0,0-.436-.436m0,1.679a.436.436,0,1,0,.436.436.435.435,0,0,0-.436-.436m2.7-5.038a.436.436,0,1,0,.436.436.435.435,0,0,0-.436-.436m0,1.679a.436.436,0,1,0,.436.436.435.435,0,0,0-.436-.436m0,1.679a.436.436,0,1,0,.436.436.435.435,0,0,0-.436-.436m0,1.679a.436.436,0,1,0,.436.436.435.435,0,0,0-.436-.436m2.7-5.038a.436.436,0,1,0,.436.436.436.436,0,0,0-.436-.436m0,1.679a.436.436,0,1,0,.436.436.436.436,0,0,0-.436-.436m0,1.679a.436.436,0,1,0,.436.436.436.436,0,0,0-.436-.436m0,1.679a.436.436,0,1,0,.436.436.436.436,0,0,0-.436-.436m2.7-5.038a.436.436,0,1,0,.436.436.436.436,0,0,0-.436-.436m0,1.679a.436.436,0,1,0,.436.436.435.435,0,0,0-.436-.436m0,1.679a.436.436,0,1,0,.436.436.436.436,0,0,0-.436-.436m0,1.679a.436.436,0,1,0,.436.436.436.436,0,0,0-.436-.436m2.7-5.038a.436.436,0,1,0,.435.436.436.436,0,0,0-.435-.436m0,1.679a.436.436,0,1,0,.435.436.435.435,0,0,0-.435-.436m0,1.679a.436.436,0,1,0,.435.436.436.436,0,0,0-.435-.436m0,1.679a.436.436,0,1,0,.435.436.436.436,0,0,0-.435-.436m2.7-5.038a.436.436,0,1,0,.436.436.436.436,0,0,0-.436-.436m0,1.679a.436.436,0,1,0,.436.436.436.436,0,0,0-.436-.436m0,1.679a.436.436,0,1,0,.436.436.436.436,0,0,0-.436-.436m0,1.679a.436.436,0,1,0,.436.436.436.436,0,0,0-.436-.436m2.7-5.038a.436.436,0,1,0,.436.436.435.435,0,0,0-.436-.436m0,1.679a.436.436,0,1,0,.436.436.435.435,0,0,0-.436-.436m0,1.679a.436.436,0,1,0,.436.436.435.435,0,0,0-.436-.436m0,1.679a.436.436,0,1,0,.436.436.435.435,0,0,0-.436-.436m2.7-5.038a.436.436,0,1,0,.435.436.436.436,0,0,0-.435-.436m0,1.679a.436.436,0,1,0,.435.436.435.435,0,0,0-.435-.436m0,1.679a.436.436,0,1,0,.435.436.435.435,0,0,0-.435-.436m0,1.679a.436.436,0,1,0,.435.436.435.435,0,0,0-.435-.436m2.7-5.038a.436.436,0,1,0,.436.436.436.436,0,0,0-.436-.436m0,1.679a.436.436,0,1,0,.436.436.435.435,0,0,0-.436-.436m0,1.679a.436.436,0,1,0,.436.436.436.436,0,0,0-.436-.436m0,1.679a.436.436,0,1,0,.436.436.436.436,0,0,0-.436-.436m2.7-5.038a.436.436,0,1,0,.436.436.436.436,0,0,0-.436-.436m0,1.679a.436.436,0,1,0,.436.436.435.435,0,0,0-.436-.436m0,1.679a.436.436,0,1,0,.436.436.436.436,0,0,0-.436-.436m0,1.679a.436.436,0,1,0,.436.436.436.436,0,0,0-.436-.436m2.7-5.038a.436.436,0,1,0,.435.436.436.436,0,0,0-.435-.436m0,1.679a.436.436,0,1,0,.435.436.435.435,0,0,0-.435-.436m0,1.679a.436.436,0,1,0,.435.436.436.436,0,0,0-.435-.436m0,1.679a.436.436,0,1,0,.435.436.436.436,0,0,0-.435-.436m2.7-5.038a.436.436,0,1,0,.436.436.436.436,0,0,0-.436-.436m0,1.679a.436.436,0,1,0,.436.436.436.436,0,0,0-.436-.436m0,1.679a.436.436,0,1,0,.436.436.436.436,0,0,0-.436-.436m0,1.679a.436.436,0,1,0,.436.436.436.436,0,0,0-.436-.436m2.7-5.038a.436.436,0,1,0,.436.436.436.436,0,0,0-.436-.436m0,1.679a.436.436,0,1,0,.436.436.435.435,0,0,0-.436-.436m0,1.679a.436.436,0,1,0,.436.436.435.435,0,0,0-.436-.436m0,1.679a.436.436,0,1,0,.436.436.435.435,0,0,0-.436-.436m2.7-5.038a.436.436,0,1,0,.435.436.435.435,0,0,0-.435-.436m0,1.679a.436.436,0,1,0,.435.436.435.435,0,0,0-.435-.436m0,1.679a.436.436,0,1,0,.435.436.435.435,0,0,0-.435-.436m0,1.679a.436.436,0,1,0,.435.436.435.435,0,0,0-.435-.436m2.7-5.038a.436.436,0,1,0,.436.436.436.436,0,0,0-.436-.436m0,1.679a.436.436,0,1,0,.436.436.435.435,0,0,0-.436-.436m0,1.679a.436.436,0,1,0,.436.436.436.436,0,0,0-.436-.436m0,1.679a.436.436,0,1,0,.436.436.436.436,0,0,0-.436-.436m2.7-5.038a.436.436,0,1,0,.436.436.436.436,0,0,0-.436-.436m0,1.679a.436.436,0,1,0,.436.436.435.435,0,0,0-.436-.436m0,1.679a.436.436,0,1,0,.436.436.436.436,0,0,0-.436-.436m0,1.679a.436.436,0,1,0,.436.436.436.436,0,0,0-.436-.436m2.7-5.038a.436.436,0,1,0,.435.436.436.436,0,0,0-.435-.436m0,1.679a.436.436,0,1,0,.435.436.435.435,0,0,0-.435-.436m0,1.679a.436.436,0,1,0,.435.436.435.435,0,0,0-.435-.436m0,1.679a.436.436,0,1,0,.435.436.435.435,0,0,0-.435-.436m2.7-5.038a.436.436,0,1,0,.436.436.436.436,0,0,0-.436-.436m0,1.679a.436.436,0,1,0,.436.436.436.436,0,0,0-.436-.436m0,1.679a.436.436,0,1,0,.436.436.436.436,0,0,0-.436-.436m0,1.679a.436.436,0,1,0,.436.436.436.436,0,0,0-.436-.436m2.7-5.038a.436.436,0,1,0,.436.436.436.436,0,0,0-.436-.436m0,1.679a.436.436,0,1,0,.436.436.435.435,0,0,0-.436-.436m0,1.679a.436.436,0,1,0,.436.436.436.436,0,0,0-.436-.436m0,1.679a.436.436,0,1,0,.436.436.436.436,0,0,0-.436-.436" transform="translate(-796.911 -196.879)"/>
    <rect id="Rectangle_57824" data-name="Rectangle 57824" width="62.661" height="0.791" transform="translate(612.428 317.762) rotate(-84.817)"/>
    <path id="Path_277269" data-name="Path 277269" d="M1120.74,179.013l5.113,60.924.787-.066-5.112-60.907Z" transform="translate(-522.334 77.897)"/>
    <path id="Path_277270" data-name="Path 277270" d="M1146.914,170.922v.872l299.638,138.8.112-.818Z" transform="translate(-536.518 82.254)"/>
    <path id="Path_277271" data-name="Path 277271" d="M1641.173,405.814a7.324,7.324,0,1,1-6.845-7.773,7.324,7.324,0,0,1,6.845,7.773" transform="translate(-796.429 -40.814)" fill="#e6e6e6"/>
    <path id="Path_277272" data-name="Path 277272" d="M1641.442,407.452a5.86,5.86,0,1,1-5.477-6.22,5.86,5.86,0,0,1,5.477,6.22" transform="translate(-798.159 -42.545)" fill="gray"/>
    <path id="Path_277273" data-name="Path 277273" d="M1140.882,181.89a11.629,11.629,0,1,1-10.868-12.343,11.628,11.628,0,0,1,10.868,12.343" transform="translate(-520.658 83.013)" fill="#e6e6e6"/>
    <path id="Path_277274" data-name="Path 277274" d="M1141.312,184.491a9.305,9.305,0,1,1-8.7-9.877,9.3,9.3,0,0,1,8.7,9.877" transform="translate(-523.407 80.264)" fill="gray"/>
    <path id="Path_277275" data-name="Path 277275" d="M1355.864,264.366l-2.255,4.7-7.141-3.544,2.212-4.6a3.371,3.371,0,0,1,4.5-1.579l1.107.531a3.371,3.371,0,0,1,1.579,4.5" transform="translate(-644.657 34.523)" fill="#fbb03b"/>
    <path id="Path_277276" data-name="Path 277276" d="M1137.973,292.071h-5.826l-3.4,9.577,3.4,3.156h1.441v1.4h2.791v-1.4h1.593l3.4-3.155Z" transform="translate(-526.674 16.603)" fill="#fbb03b"/>
    <path id="Path_277277" data-name="Path 277277" d="M1619.8,421.12l21.168,14.9-7.014-28.324a3.943,3.943,0,0,0-2.372-2.717l-1.909-.758a1.809,1.809,0,0,0-2.3.907Z" transform="translate(-792.774 -44.101)" fill="#fbb03b"/>
    <path id="Path_277278" data-name="Path 277278" d="M1526.643,367.712,1306.779,258.754l-8.859,18.437,103.327,53,8.006,9.473L1522.3,399.224Z" transform="translate(-618.349 34.658)" fill="#fbb03b"/>
    <path id="Path_277279" data-name="Path 277279" d="M1148.545,204.467l-13.411-6.339a11.068,11.068,0,0,1-5.269-14.762l2.51-5.281,23.446,11.083Z" transform="translate(-526.696 78.373)" fill="#fbb03b"/>
    <path id="Path_277280" data-name="Path 277280" d="M1237.358,236.18l-4.892,10.181c-8.763-4.133-29.452-13.989-58.48-27.717l4.959-10.172c11.193,5.313,35.236,16.735,58.413,27.708" transform="translate(-551.188 61.906)" fill="gray"/>
    <path id="Path_277281" data-name="Path 277281" d="M1181.945,208.472l-2.423,4.97c25.316,11.972,52.71,25,58.449,27.706l2.387-4.968c-23.177-10.973-47.22-22.394-58.413-27.708" transform="translate(-554.188 61.906)" fill="#e6e6e6"/>
    <path id="Path_277282" data-name="Path 277282" d="M1140.694,190.18a1.979,1.979,0,1,1-2.39,1.457,1.981,1.981,0,0,1,2.39-1.457m.093-.381a2.371,2.371,0,1,0,1.745,2.864,2.374,2.374,0,0,0-1.745-2.864" transform="translate(-531.609 72.062)" fill="#a87628"/>
    <path id="Path_277283" data-name="Path 277283" d="M1139.2,327.691a1.969,1.969,0,0,1-1.95,1.836,1.669,1.669,0,0,1-1.448-2.306c.356-1.1,1.28-.858,2.344-2.237.766-.994-.1-1.475-.023-2.056,0-.012-1.656-.012-1.656-.012.1,2.137-1.538.674-2.921,3.006a3.925,3.925,0,0,0,4.743,5.654,3.081,3.081,0,0,0,2.175-1.942,3.808,3.808,0,0,0,.306-1.729c.015-1.236.637-.713.66-1.676s-2.192.713-2.23,1.464" transform="translate(-528.999 -0.111)" fill="#1a1a1a"/>
    <path id="Path_277284" data-name="Path 277284" d="M1139.616,328.834a2.042,2.042,0,0,1-1.909,1.575,2.734,2.734,0,0,1-1.719-.655,1.975,1.975,0,0,1-.771-1.544,2.55,2.55,0,0,1,.691-1.52,7.758,7.758,0,0,1,1.207-1.1,1.518,1.518,0,0,0,.675-.928,1.89,1.89,0,0,0,0-.695c-.075-.508-.225-.5-.424-.039a2.1,2.1,0,0,1-.223.517.951.951,0,0,1-.508.364,6.175,6.175,0,0,0-1.583,1.041,3.553,3.553,0,0,0-1.21,2.26,3.23,3.23,0,0,0,1.217,2.746,3.91,3.91,0,0,0,2.707.933,3.046,3.046,0,0,0,2.844-2.7,8.121,8.121,0,0,1,.188-1.336c.111-.329.317-.847.317-.847.026-.138-.1-.142-.227-.091a1.723,1.723,0,0,0-.689.6,4.293,4.293,0,0,0-.579,1.413" transform="translate(-529.426 -0.476)" fill="#4d4d4d"/>
    <path id="Path_277285" data-name="Path 277285" d="M1142.15,360.824l0-25.734c0-.06-.177-.108-.4-.108s-.4.049-.4.108l0,25.866Z" transform="translate(-533.508 -6.65)"/>
    <rect id="Rectangle_57825" data-name="Rectangle 57825" width="1.849" height="11.075" transform="translate(607.326 332.486)" fill="#e6e6e6"/>
    <path id="Path_277286" data-name="Path 277286" d="M1141.993,292.071l-1.117,1.582,2.677,7.544-2.181,2.025h-4.584l-.621,1.582h5.826l3.4-3.155Z" transform="translate(-530.693 16.603)" fill="#cc8f30"/>
    <path id="Path_277287" data-name="Path 277287" d="M1130.586,301.2l2.677-7.544h3.592l1.117-1.582h-5.826l-3.4,9.577,3.4,3.156.621-1.582Z" transform="translate(-526.674 16.603)" fill="#ffd27d"/>
    <path id="Path_277288" data-name="Path 277288" d="M1641.054,411.035a1.247,1.247,0,1,1-1.505.918,1.247,1.247,0,0,1,1.505-.918m.058-.24a1.494,1.494,0,1,0,1.1,1.8,1.495,1.495,0,0,0-1.1-1.8" transform="translate(-803.326 -47.711)" fill="#a87628"/>
    <path id="Path_277289" data-name="Path 277289" d="M1486.666,400.483l-.819.759L1409.252,360.9l-7.988-9.478-103.345-53.006,1.409-.481,102.377,52.533.2.092.147.184,7.856,9.311Z" transform="translate(-618.348 13.428)" fill="#cc8f30"/>
    <path id="Path_277290" data-name="Path 277290" d="M1512.234,369.919l-.826.772-194.438-96.8-3.838,8.013-1.41.5,4.766-9.9Z" transform="translate(-625.828 27.212)" fill="#cc8f30"/>
    <path id="Path_277291" data-name="Path 277291" d="M1514.518,361.707l-3.358-.213L1307.274,260.156l-7.947,16.549-1.409.481,8.858-18.425Z" transform="translate(-618.348 34.654)" fill="#ffd27d"/>
    <path id="Path_277292" data-name="Path 277292" d="M1497.565,394.648l-.809.757-76.96-40.964-8.113-9.5c-.738-.364-99.221-51.064-99.96-51.412l1.411-.5,99.083,50.992,8.112,9.517Z" transform="translate(-625.828 16.084)" fill="#ffd27d"/>
    <path id="Path_277293" data-name="Path 277293" d="M1354.285,259.868l-1.107-.531a3.366,3.366,0,0,0-4.5,1.579l-2.212,4.6.624.31,2.2-4.62a2.688,2.688,0,0,1,3.594-1.262l1.106.531a2.7,2.7,0,0,1,1.262,3.594L1353,268.758l.613.3,2.255-4.7a3.372,3.372,0,0,0-1.579-4.5" transform="translate(-644.657 34.523)" fill="#cc8f30"/>
    <path id="Path_277294" data-name="Path 277294" d="M1355.524,267.626a1.13,1.13,0,1,1,.831,1.364,1.131,1.131,0,0,1-.831-1.364m.218.053a.905.905,0,1,0,1.093-.666.906.906,0,0,0-1.093.666" transform="translate(-649.547 30.318)" fill="#a87628"/>
    <path id="Path_277295" data-name="Path 277295" d="M1636.556,404.3a1.751,1.751,0,0,1,.184.037l-.3-.12a1.808,1.808,0,0,0-2.3.907l-1.848,3.9.509.25,1.85-3.913a1.192,1.192,0,0,1,.108-.184,1.806,1.806,0,0,1,1.8-.882" transform="translate(-799.544 -44.101)" fill="#ffd27d"/>
    <path id="Path_277296" data-name="Path 277296" d="M1641.264,405.208l-1.608-.638a1.78,1.78,0,0,0-1.986.845,1.239,1.239,0,0,1,1.186-.517,1.26,1.26,0,0,1,.289.077l1.909.758a3.386,3.386,0,0,1,2.033,2.328l1.3,5.225.208-1.5-.956-3.86a3.945,3.945,0,0,0-2.372-2.717" transform="translate(-802.461 -44.331)" fill="#cc8f30"/>
    <path id="Path_277297" data-name="Path 277297" d="M1137.474,196.856a10.48,10.48,0,0,1-5-13.981l.916-1.926-1.018-2.864-2.509,5.276a11.072,11.072,0,0,0,5.267,14.766l13.412,6.34-1.017-2.864Z" transform="translate(-526.696 78.373)" fill="#cc8f30"/>
    <path id="Path_277298" data-name="Path 277298" d="M1136.618,178.085l1.018,2.865,19.564,9.236-5.43,11.418,1.017,2.864,7.277-15.3Z" transform="translate(-530.938 78.373)" fill="#ffd27d"/>
    <rect id="Rectangle_57826" data-name="Rectangle 57826" width="0.897" height="11.075" transform="translate(608.277 332.486)" fill="gray"/>
    <path id="Path_277299" data-name="Path 277299" d="M1348.811,262.217l.48-1.008a2.649,2.649,0,0,1,.132-.239,3.359,3.359,0,0,1,4.327-1.359l-.571-.274a3.367,3.367,0,0,0-4.5,1.579l-2.212,4.6.624.31c-.009-.016,1.719-3.612,1.719-3.612" transform="translate(-644.657 34.523)" fill="#ffd27d"/>
    <path id="Path_277300" data-name="Path 277300" d="M1772.289,345.971h-42.167l45.183-62.412h19.575Z" transform="translate(-852.561 21.216)" fill="#fbb03b"/>
    <rect id="Rectangle_57827" data-name="Rectangle 57827" width="36.944" height="3.709" transform="translate(913.939 304.775)" fill="#fbb03b"/>
    <path id="Path_277301" data-name="Path 277301" d="M1809.535,287.267l.678-.677v-2.354h35.59l.677-.678h-36.944Z" transform="translate(-895.595 21.216)" fill="#ffd27d"/>
    <path id="Path_277302" data-name="Path 277302" d="M1845.8,286.59h-35.589l-.678.677h36.945v-3.709l-.677.678Z" transform="translate(-895.595 21.216)" fill="#cc8f30"/>
    <path id="Path_277303" data-name="Path 277303" d="M1819.549,350.359h1.2l21.248-58.7h-1.2Z" transform="translate(-901.021 16.829)" fill="#cc8f30"/>
    <path id="Path_277304" data-name="Path 277304" d="M1772.62,291.655l-42.5,58.7h1.395l42.5-58.7Z" transform="translate(-852.562 16.829)" fill="#ffd27d"/>
    <rect id="Rectangle_57828" data-name="Rectangle 57828" width="23.016" height="9.812" transform="translate(644.094 485.54) rotate(-68.643)" fill="#fbb03b"/>
    <path id="Path_277305" data-name="Path 277305" d="M1134.515,636.528l-4.664,11.927-93.464-20.689,2.441-11.029Z" transform="translate(-476.622 -159.335)" fill="#fbb03b"/>
    <path id="Path_277306" data-name="Path 277306" d="M972.182,605.693l-2.866,9.722L907.55,599.457l1.22-5.515Z" transform="translate(-406.806 -146.982)" fill="#fbb03b"/>
    <rect id="Rectangle_57829" data-name="Rectangle 57829" width="15.126" height="11.731" transform="matrix(0.216, -0.976, 0.976, 0.216, 549.49, 468.119)" fill="#fbb03b"/>
    <path id="Path_277307" data-name="Path 277307" d="M1129.259,634.91l.762,1.033-85.348-17.351.243-1.118Z" transform="translate(-481.112 -159.734)" fill="#ffd27d"/>
    <path id="Path_277308" data-name="Path 277308" d="M1226.263,667.088a1.324,1.324,0,1,1,.574,1.782,1.326,1.326,0,0,1-.574-1.782m-.234-.12a1.586,1.586,0,1,0,2.135-.688,1.588,1.588,0,0,0-2.135.688" transform="translate(-579.296 -186.088)" fill="#a87628"/>
    <path id="Path_277309" data-name="Path 277309" d="M1040.093,639.151l-.243,1.118L1131.74,660.6l-.7-1.316Z" transform="translate(-478.499 -171.481)" fill="#cc8f30"/>
    <path id="Path_277310" data-name="Path 277310" d="M1238.916,662.347l.689,1.308,7.224-18.444-1.052-.411Z" transform="translate(-586.374 -174.542)" fill="#cc8f30"/>
    <path id="Path_277311" data-name="Path 277311" d="M1229.32,645.973l.762,1.033,3.45-8.7-1.052-.411Z" transform="translate(-581.174 -170.797)" fill="#ffd27d"/>
    <path id="Path_277312" data-name="Path 277312" d="M908.792,593.924l-1.212,5.518,1.337-.821.743-3.387,49.029,9.091.244-1.1Z" transform="translate(-406.822 -146.972)" fill="#ffd27d"/>
    <path id="Path_277313" data-name="Path 277313" d="M908.917,604.177l-1.337.821,49.363,12.777.244-1.1Z" transform="translate(-406.822 -152.528)" fill="#cc8f30"/>
    <path id="Path_277314" data-name="Path 277314" d="M1017.229,607.891l-3.269,14.769,1.347-.859,2.781-12.563,9.248,2.047,1.347-.858Z" transform="translate(-464.469 -154.541)" fill="#ffd27d"/>
    <path id="Path_277315" data-name="Path 277315" d="M1027.336,614.285l-2.781,12.563-9.248-2.047-1.347.859,11.454,2.536,3.269-14.769Z" transform="translate(-464.469 -157.541)" fill="#cc8f30"/>
    <path id="Path_277316" data-name="Path 277316" d="M1048.143,624.76l-1.229,5.554,1.347-.859.744-3.363,85.826,17.706,1.54-.836Z" transform="translate(-482.327 -163.682)" fill="#cc8f30"/>
    <path id="Path_277317" data-name="Path 277317" d="M1134.832,649.353l-1.725,4.412-84.845-18.756-1.347.859,86.893,19.208,2.565-6.56Z" transform="translate(-482.327 -169.236)" fill="#ffd27d"/>
    <rect id="Rectangle_57830" data-name="Rectangle 57830" width="4.518" height="67.349" transform="translate(748.879 338.632) rotate(-36.883)" fill="gray"/>
    <rect id="Rectangle_57831" data-name="Rectangle 57831" width="2.263" height="67.347" transform="matrix(0.8, -0.6, 0.6, 0.8, 750.678, 337.284)" fill="#e6e6e6"/>
    <path id="Path_277318" data-name="Path 277318" d="M1466.313,378.6l-19.364-25.862,4.783-3.59L1471.1,375.01Z" transform="translate(-699.108 -14.327)" fill="#333"/>
    <path id="Path_277319" data-name="Path 277319" d="M1473.894,375.01l-2.4,1.8-19.388-25.841,2.421-1.818Z" transform="translate(-701.904 -14.326)" fill="#666"/>
    <path id="Path_277320" data-name="Path 277320" d="M1445.36,342.072a1.66,1.66,0,0,1,1.273.665l.725.966-4.592,3.446-.729-.972a1.66,1.66,0,0,1,.331-2.321l1.935-1.452a1.645,1.645,0,0,1,1.058-.332m.046-1.261a2.917,2.917,0,0,0-1.861.584l-1.934,1.452a2.92,2.92,0,0,0-.583,4.088l1.486,1.98,6.61-4.96-1.482-1.975a2.92,2.92,0,0,0-2.236-1.168" transform="translate(-695.582 -9.808)" fill="#cc8f30"/>
    <path id="Path_277321" data-name="Path 277321" d="M1445.98,346.841a1.129,1.129,0,1,1,.964,1.273,1.131,1.131,0,0,1-.964-1.273m.222.031a.905.905,0,1,0,1.021-.773.906.906,0,0,0-1.021.773" transform="translate(-698.577 -12.548)" fill="#a87628"/>
    <path id="Path_277322" data-name="Path 277322" d="M1448.277,342.827a2.921,2.921,0,0,0-3.823-.523,1.648,1.648,0,0,0-.152.1l-1.935,1.452a1.659,1.659,0,0,0-.331,2.319l.731.973-.254,1.766-1.487-1.981a2.92,2.92,0,0,1,.583-4.085l1.935-1.452a2.929,2.929,0,0,1,4.1.583Z" transform="translate(-695.582 -9.809)" fill="#ffd27d"/>
    <path id="Path_277323" data-name="Path 277323" d="M1591.02,447.1l-48.637-22.618h-23.247l-24.025,34.729,95.926-.029Z" transform="translate(-725.207 -55.148)" fill="#fbb03b"/>
    <path id="Path_277324" data-name="Path 277324" d="M1598.067,424.478l-.21.916,48.843,22.712v-1.012Z" transform="translate(-780.886 -55.148)" fill="#cc8f30"/>
    <path id="Path_277325" data-name="Path 277325" d="M1542.385,424.478h-23.252l-24.025,34.728h1.118l23.387-33.812h22.564Z" transform="translate(-725.206 -55.148)" fill="#ffd27d"/>
    <path id="Path_277326" data-name="Path 277326" d="M1595.518,440.362a1.979,1.979,0,1,1-2.39,1.457,1.981,1.981,0,0,1,2.39-1.457m.093-.381a2.371,2.371,0,1,0,1.745,2.864,2.374,2.374,0,0,0-1.745-2.864" transform="translate(-778.08 -63.513)" fill="#a87628"/>
    <path id="Path_277327" data-name="Path 277327" d="M1540.049,468.279a1.979,1.979,0,1,1-2.39,1.457,1.981,1.981,0,0,1,2.39-1.457m.093-.381a2.371,2.371,0,1,0,1.745,2.864,2.374,2.374,0,0,0-1.745-2.864" transform="translate(-748.021 -78.641)" fill="#a87628"/>
    <rect id="Rectangle_57832" data-name="Rectangle 57832" width="71.307" height="8.096" transform="translate(186.423 510.391)" fill="gray"/>
    <rect id="Rectangle_57833" data-name="Rectangle 57833" width="71.307" height="4.048" transform="translate(186.423 510.391)" fill="#e6e6e6"/>
    <path id="Path_277328" data-name="Path 277328" d="M185.441,714.555a21.545,21.545,0,1,0,21.545-21.545,21.545,21.545,0,0,0-21.545,21.545" transform="translate(-15.491 -200.667)" fill="#404040"/>
    <path id="Path_277329" data-name="Path 277329" d="M229.328,720.592a12.64,12.64,0,1,0-7.314,16.306,12.636,12.636,0,0,0,7.314-16.306" transform="translate(-26.022 -211.204)" fill="#1a1a1a"/>
    <path id="Path_277330" data-name="Path 277330" d="M214.508,707.119a15.082,15.082,0,1,0,15.2,14.957,15.082,15.082,0,0,0-15.2-14.957m.246,28.257a13.177,13.177,0,1,1,13.068-13.285,13.18,13.18,0,0,1-13.068,13.285" transform="translate(-23.138 -208.313)" fill="#e6e6e6"/>
    <path id="Path_277331" data-name="Path 277331" d="M216.807,711.278a13.177,13.177,0,1,0,13.284,13.068,13.177,13.177,0,0,0-13.284-13.068m6.541,6.894.28-1.449c.339-1.753,2.268.522,3.106,1.945s1.887,4.215.191,3.661l-1.4-.459a3.243,3.243,0,0,1-2.175-3.7m-12.893,12.565-.28,1.449c-.339,1.752-2.272-.527-3.106-1.946s-1.888-4.215-.192-3.66l1.4.459a3.242,3.242,0,0,1,2.175,3.7m-2.216-8.724-1.395.482c-1.686.583-.682-2.226.131-3.663s2.706-3.742,3.074-2l.3,1.444a3.241,3.241,0,0,1-2.114,3.733M217,735.864c-1.645.014-4.593-.472-3.265-1.664l1.1-.986a3.241,3.241,0,0,1,4.289-.035l1.115.968c1.348,1.169-1.586,1.7-3.237,1.717m3.077-21.155-1.1.985a3.241,3.241,0,0,1-4.289.036l-1.115-.968c-1.348-1.169,1.591-1.7,3.237-1.717s4.594.473,3.265,1.664m6.755,15.37c-.814,1.437-2.706,3.743-3.074,2l-.3-1.444a3.244,3.244,0,0,1,2.115-3.733l1.395-.482c1.686-.583.679,2.231-.131,3.663" transform="translate(-25.407 -210.566)" fill="#ccc"/>
    <path id="Path_277332" data-name="Path 277332" d="M220.3,727.836a6.458,6.458,0,1,0,9.133,0,6.458,6.458,0,0,0-9.133,0" transform="translate(-33.354 -218.514)" fill="#b3b3b3"/>
    <path id="Path_277333" data-name="Path 277333" d="M223.611,735.358a4.052,4.052,0,0,0,1.1,2.741.835.835,0,0,1,.967.009.834.834,0,0,1,.309.911,4.079,4.079,0,0,0,3.411-.018.832.832,0,0,1,1.266-.931,4.043,4.043,0,0,0,1.069-2.778,4.1,4.1,0,0,0-.032-.471.832.832,0,0,1-.493-1.492,4.055,4.055,0,0,0-2.769-1.991.833.833,0,0,1-1.573.009,4.06,4.06,0,0,0-2.75,2.018.832.832,0,0,1-.477,1.5,4.134,4.134,0,0,0-.026.5" transform="translate(-36.176 -221.437)" fill="gray"/>
    <path id="Path_277334" data-name="Path 277334" d="M231.24,729.308l-.323.6.354.578.677-.018.323-.595-.354-.578Z" transform="translate(-40.135 -220.328)" fill="#1a1a1a"/>
    <path id="Path_277335" data-name="Path 277335" d="M241.068,735.806l-.666-.123-.44.515.226.638.666.123.44-.515Z" transform="translate(-45.036 -223.792)" fill="#1a1a1a"/>
    <path id="Path_277336" data-name="Path 277336" d="M237.921,747.125l-.088-.672-.626-.259-.537.412.088.672.625.259Z" transform="translate(-43.253 -229.488)" fill="#1a1a1a"/>
    <path id="Path_277337" data-name="Path 277337" d="M226.149,747.592l.611-.292.053-.675-.558-.383-.611.291-.053.675Z" transform="translate(-37.249 -229.514)" fill="#1a1a1a"/>
    <path id="Path_277338" data-name="Path 277338" d="M222,736.556l.466.491.658-.158.192-.649-.466-.491-.658.158Z" transform="translate(-35.304 -223.828)" fill="#1a1a1a"/>
    <path id="Path_277339" data-name="Path 277339" d="M207.3,696.241a22.63,22.63,0,0,1,21.279,14.93,21.547,21.547,0,0,0-42.559,0,22.63,22.63,0,0,1,21.28-14.93" transform="translate(-15.805 -200.667)" fill="#595959"/>
    <path id="Path_277340" data-name="Path 277340" d="M207.3,762.357a22.63,22.63,0,0,1-21.279-14.93,21.547,21.547,0,0,0,42.559,0,22.63,22.63,0,0,1-21.28,14.93" transform="translate(-15.805 -230.156)" fill="#262626"/>
    <path id="Path_277341" data-name="Path 277341" d="M216.068,708.272a16.043,16.043,0,0,1,13.888,7.755,15.079,15.079,0,0,0-27.517,0,16.079,16.079,0,0,1,13.63-7.758" transform="translate(-24.702 -208.313)" fill="#ccc"/>
    <path id="Path_277342" data-name="Path 277342" d="M216.325,761.27a16.043,16.043,0,0,1-13.888-7.755,15.079,15.079,0,0,0,27.517,0,16.079,16.079,0,0,1-13.63,7.758" transform="translate(-24.701 -233.454)" fill="#fafafa"/>
    <path id="Path_277343" data-name="Path 277343" d="M217.343,713.052a13.565,13.565,0,0,1,12.761,10.06,13.176,13.176,0,0,0-26.215,0,13.576,13.576,0,0,1,13.454-10.063" transform="translate(-25.488 -210.566)" fill="#b3b3b3"/>
    <path id="Path_277344" data-name="Path 277344" d="M216.649,753.025a13.565,13.565,0,0,1-12.761-10.06,13.176,13.176,0,0,0,26.215,0,13.575,13.575,0,0,1-13.454,10.063" transform="translate(-25.487 -227.736)" fill="#f5f5f5"/>
    <path id="Path_277345" data-name="Path 277345" d="M229.837,729.614a6.963,6.963,0,0,1,1.488,2.2,6.457,6.457,0,0,0-12.862,0,6.99,6.99,0,0,1,11.374-2.2" transform="translate(-33.386 -218.514)" fill="#999"/>
    <path id="Path_277346" data-name="Path 277346" d="M219.952,743.519a6.963,6.963,0,0,1-1.488-2.2,6.457,6.457,0,0,0,12.862,0,6.99,6.99,0,0,1-11.374,2.2" transform="translate(-33.387 -226.844)" fill="#e6e6e6"/>
    <path id="Path_277347" data-name="Path 277347" d="M232.008,736.927a2.67,2.67,0,0,0-5.084,0,2.543,2.543,0,0,1,2.542-2.374,2.533,2.533,0,0,1,1.8.745,2.542,2.542,0,0,1,.739,1.629" transform="translate(-37.971 -223.18)" fill="#ccc"/>
    <path id="Path_277348" data-name="Path 277348" d="M232.008,740.346a2.67,2.67,0,0,1-5.084,0,2.543,2.543,0,0,0,2.542,2.374,2.533,2.533,0,0,0,1.8-.745,2.542,2.542,0,0,0,.739-1.629" transform="translate(-37.971 -226.319)" fill="#4d4d4d"/>
    <path id="Path_277349" data-name="Path 277349" d="M313.66,714.555a21.545,21.545,0,1,0,21.545-21.545,21.545,21.545,0,0,0-21.545,21.545" transform="translate(-84.974 -200.667)" fill="#404040"/>
    <path id="Path_277350" data-name="Path 277350" d="M357.547,720.592a12.64,12.64,0,1,0-7.314,16.306,12.637,12.637,0,0,0,7.314-16.306" transform="translate(-95.505 -211.204)" fill="#1a1a1a"/>
    <path id="Path_277351" data-name="Path 277351" d="M342.727,707.119a15.082,15.082,0,1,0,15.2,14.957,15.082,15.082,0,0,0-15.2-14.957m.246,28.257a13.177,13.177,0,1,1,13.068-13.285,13.18,13.18,0,0,1-13.068,13.285" transform="translate(-92.62 -208.313)" fill="#e6e6e6"/>
    <path id="Path_277352" data-name="Path 277352" d="M345.026,711.278a13.177,13.177,0,1,0,13.284,13.068,13.177,13.177,0,0,0-13.284-13.068m6.541,6.894.28-1.449c.339-1.753,2.268.522,3.106,1.945s1.887,4.215.192,3.661l-1.4-.459a3.243,3.243,0,0,1-2.175-3.7m-12.893,12.565-.28,1.449c-.339,1.752-2.272-.527-3.106-1.946s-1.888-4.215-.192-3.66l1.4.459a3.242,3.242,0,0,1,2.175,3.7m-2.216-8.724-1.395.482c-1.687.583-.683-2.226.132-3.663s2.705-3.742,3.073-2l.3,1.444a3.241,3.241,0,0,1-2.114,3.733m8.757,13.852c-1.645.014-4.593-.472-3.265-1.664l1.1-.986a3.242,3.242,0,0,1,4.289-.035l1.115.968c1.348,1.169-1.586,1.7-3.237,1.717m3.078-21.155-1.1.985a3.241,3.241,0,0,1-4.289.036l-1.115-.968c-1.348-1.169,1.592-1.7,3.237-1.717s4.594.473,3.265,1.664m6.755,15.37c-.814,1.437-2.706,3.743-3.073,2l-.3-1.444a3.242,3.242,0,0,1,2.114-3.733l1.395-.482c1.686-.583.679,2.231-.131,3.663" transform="translate(-94.89 -210.566)" fill="#ccc"/>
    <path id="Path_277353" data-name="Path 277353" d="M348.516,727.836a6.458,6.458,0,1,0,9.133,0,6.458,6.458,0,0,0-9.133,0" transform="translate(-102.837 -218.514)" fill="#b3b3b3"/>
    <path id="Path_277354" data-name="Path 277354" d="M351.83,735.358a4.052,4.052,0,0,0,1.1,2.741.835.835,0,0,1,.967.009.834.834,0,0,1,.309.911,4.079,4.079,0,0,0,3.411-.018.833.833,0,0,1,1.267-.931,4.043,4.043,0,0,0,1.068-2.778,3.988,3.988,0,0,0-.032-.471.832.832,0,0,1-.493-1.492,4.055,4.055,0,0,0-2.769-1.991.833.833,0,0,1-1.573.009,4.06,4.06,0,0,0-2.75,2.018.832.832,0,0,1-.477,1.5,4.141,4.141,0,0,0-.026.5" transform="translate(-105.658 -221.437)" fill="gray"/>
    <path id="Path_277355" data-name="Path 277355" d="M359.46,729.308l-.323.6.354.578.677-.018.323-.595-.354-.578Z" transform="translate(-109.617 -220.328)" fill="#1a1a1a"/>
    <path id="Path_277356" data-name="Path 277356" d="M369.287,735.806l-.666-.123-.44.515.226.638.666.123.44-.515Z" transform="translate(-114.519 -223.792)" fill="#1a1a1a"/>
    <path id="Path_277357" data-name="Path 277357" d="M366.14,747.125l-.088-.672-.626-.259-.537.412.088.672.625.259Z" transform="translate(-112.735 -229.488)" fill="#1a1a1a"/>
    <path id="Path_277358" data-name="Path 277358" d="M354.368,747.592l.611-.292.053-.675-.557-.383-.612.291-.053.675Z" transform="translate(-106.731 -229.514)" fill="#1a1a1a"/>
    <path id="Path_277359" data-name="Path 277359" d="M350.22,736.556l.466.491.658-.158.192-.649-.466-.491-.658.158Z" transform="translate(-104.786 -223.828)" fill="#1a1a1a"/>
    <path id="Path_277360" data-name="Path 277360" d="M335.519,696.241a22.63,22.63,0,0,1,21.279,14.93,21.547,21.547,0,0,0-42.559,0,22.63,22.63,0,0,1,21.28-14.93" transform="translate(-85.287 -200.667)" fill="#595959"/>
    <path id="Path_277361" data-name="Path 277361" d="M335.518,762.357a22.63,22.63,0,0,1-21.279-14.93,21.547,21.547,0,0,0,42.559,0,22.63,22.63,0,0,1-21.28,14.93" transform="translate(-85.287 -230.156)" fill="#262626"/>
    <path id="Path_277362" data-name="Path 277362" d="M344.287,708.272a16.043,16.043,0,0,1,13.888,7.755,15.079,15.079,0,0,0-27.517,0,16.078,16.078,0,0,1,13.63-7.758" transform="translate(-94.185 -208.313)" fill="#ccc"/>
    <path id="Path_277363" data-name="Path 277363" d="M344.545,761.27a16.043,16.043,0,0,1-13.888-7.755,15.079,15.079,0,0,0,27.517,0,16.08,16.08,0,0,1-13.63,7.758" transform="translate(-94.185 -233.454)" fill="#fafafa"/>
    <path id="Path_277364" data-name="Path 277364" d="M345.562,713.052a13.565,13.565,0,0,1,12.761,10.06,13.176,13.176,0,0,0-26.215,0,13.576,13.576,0,0,1,13.454-10.063" transform="translate(-94.971 -210.566)" fill="#b3b3b3"/>
    <path id="Path_277365" data-name="Path 277365" d="M344.869,753.025a13.565,13.565,0,0,1-12.761-10.06,13.176,13.176,0,0,0,26.215,0,13.575,13.575,0,0,1-13.454,10.063" transform="translate(-94.971 -227.736)" fill="#f5f5f5"/>
    <path id="Path_277366" data-name="Path 277366" d="M358.057,729.614a6.963,6.963,0,0,1,1.488,2.2,6.457,6.457,0,0,0-12.862,0,6.99,6.99,0,0,1,11.374-2.2" transform="translate(-102.869 -218.514)" fill="#999"/>
    <path id="Path_277367" data-name="Path 277367" d="M348.171,743.519a6.963,6.963,0,0,1-1.488-2.2,6.457,6.457,0,0,0,12.862,0,6.99,6.99,0,0,1-11.374,2.2" transform="translate(-102.869 -226.844)" fill="#e6e6e6"/>
    <path id="Path_277368" data-name="Path 277368" d="M360.227,736.927a2.67,2.67,0,0,0-5.085,0,2.544,2.544,0,0,1,2.542-2.374,2.533,2.533,0,0,1,1.8.745,2.542,2.542,0,0,1,.739,1.629" transform="translate(-107.453 -223.18)" fill="#ccc"/>
    <path id="Path_277369" data-name="Path 277369" d="M360.227,740.346a2.67,2.67,0,0,1-5.085,0,2.544,2.544,0,0,0,2.542,2.374,2.533,2.533,0,0,0,1.8-.745,2.542,2.542,0,0,0,.739-1.629" transform="translate(-107.453 -226.319)" fill="#4d4d4d"/>
    <path id="Path_277370" data-name="Path 277370" d="M1844.318,265.714h-30.611a4.173,4.173,0,0,1-4.173-4.172v-2.554a4.173,4.173,0,0,1,4.173-4.173h15.688a40.308,40.308,0,0,1,13.615,2.369l2.208.792a2.649,2.649,0,0,1,1.754,2.493v2.591a2.654,2.654,0,0,1-2.654,2.654" transform="translate(-895.595 36.793)" fill="#bf6c0a"/>
    <path id="Path_277371" data-name="Path 277371" d="M1831.4,261.216a4.646,4.646,0,1,1-4.646-4.646,4.646,4.646,0,0,1,4.646,4.646" transform="translate(-902.406 35.841)" fill="#d97b0b"/>
    <path id="Path_277372" data-name="Path 277372" d="M1832.011,265.186a1.29,1.29,0,1,1-1.29-1.29,1.29,1.29,0,0,1,1.29,1.29" transform="translate(-906.377 31.872)" fill="#f29f3c"/>
    <path id="Path_277373" data-name="Path 277373" d="M1856.8,261.206a4.646,4.646,0,1,1-4.646-4.646,4.646,4.646,0,0,1,4.646,4.646" transform="translate(-916.171 35.847)" fill="#d97b0b"/>
    <rect id="Rectangle_57834" data-name="Rectangle 57834" width="21.375" height="2.268" transform="translate(920.867 302.507)" fill="gray"/>
    <rect id="Rectangle_57835" data-name="Rectangle 57835" width="10.687" height="2.268" transform="translate(920.867 302.507)" fill="#e6e6e6"/>
    <path id="Path_277374" data-name="Path 277374" d="M1846.972,260.468v2.591a2.637,2.637,0,0,1-.594,1.673v-.1a2.649,2.649,0,0,0-1.754-2.493l-2.208-.79a40.28,40.28,0,0,0-13.616-2.372h-15.687a4.172,4.172,0,0,0-3.578,2.024v-2.012a4.174,4.174,0,0,1,4.172-4.172h15.688a40.281,40.281,0,0,1,13.616,2.372l2.208.79a2.649,2.649,0,0,1,1.753,2.493" transform="translate(-895.595 36.794)" fill="#f29f3c"/>
    <path id="Path_277375" data-name="Path 277375" d="M1826.971,256.569a4.645,4.645,0,0,0-4.461,3.356h8.921a4.644,4.644,0,0,0-4.46-3.356" transform="translate(-902.626 35.842)" fill="#ffaf4d"/>
    <path id="Path_277376" data-name="Path 277376" d="M1856.972,260.6a4.642,4.642,0,0,0-9.065-.684h1.688a40.262,40.262,0,0,1,7.377.684" transform="translate(-916.389 35.846)" fill="#ffaf4d"/>
    <path id="Path_277377" data-name="Path 277377" d="M1857.411,265.186a1.29,1.29,0,1,1-1.29-1.29,1.29,1.29,0,0,1,1.29,1.29" transform="translate(-920.141 31.872)" fill="#f29f3c"/>
    <path id="Path_277378" data-name="Path 277378" d="M2220.261,450.645c0-.633-2.575-1.288-2.6-1.965l-.136-16.333c0-.723,2.575-1.469,2.575-2.192l-.09-10.528a6.843,6.843,0,0,0-6.936-6.686,6.92,6.92,0,0,1-2.014-.357c-.7-11.684-2.072-22.9-3.1-28.947a1.44,1.44,0,0,0,.215-2.3c-20.9-18.8-88.285-27.087-116.117-28.939l-9.917,1.355h-.206c-41.985-31.631-68.38-48.608-81.707-55.663-13.361-7.072-22.229-8.658-32.985-9.943-17.757-2.146-42.539-3.976-65.4-4.586-4.745-.136-11.5,3.275-11.522,8.133l-.136,66.44V469.08c85.462.068,173.748.181,173.77.181,0-.836.068-1.559.113-2.327l114.153-2.847c.045.723.135,1.469.2,2.282,4.225-.18,27.11-2.869,32.283-3.456,5.49-1.175,9.624-4.428,9.579-9.872Z" transform="translate(-939.299 21.216)" fill="#dededb"/>
    <path id="Path_277379" data-name="Path 277379" d="M1532.966,419.8H1450.18v36.811l-147.858.09-67.14,29.956v40.37L1262.539,536c.091-.768.226-1.491.361-2.282l115.86,6.845c.09.791.158,1.514.2,2.327,17.313-.11,151.753.023,154.013.023,0-.144-.01-118.479-.01-123.109" transform="translate(-584.351 -52.615)" fill="#dededb"/>
    <path id="Path_277380" data-name="Path 277380" d="M1589.354,538.794h117.932V575.1H1589.354Zm117.49.442H1589.8V574.66h117.048Z" transform="translate(-776.277 -117.097)" fill="#999"/>
    <rect id="Rectangle_57836" data-name="Rectangle 57836" width="16.249" height="7.327" transform="translate(863.918 446.734)" fill="#666"/>
    <path id="Path_277381" data-name="Path 277381" d="M1702.862,595.975H1716.8v5.012h-13.936Zm13.607.329h-13.278v4.354h13.278Z" transform="translate(-837.788 -148.083)"/>
    <rect id="Rectangle_57837" data-name="Rectangle 57837" width="13.277" height="1.366" transform="translate(865.402 451.208)"/>
    <path id="Path_277382" data-name="Path 277382" d="M2377.63,585.818a41.007,41.007,0,0,0-25.789-24.2c-12.294-3.837-26.925-3.871-42.287-1.6a41.174,41.174,0,0,0-27.7,16.922c-7.143,10.151-11.408,21.921-12.424,39l114.107-2.851c-1.031-10.947-2.676-19.049-5.9-27.267" transform="translate(-1144.813 -127.766)"/>
    <path id="Path_277383" data-name="Path 277383" d="M1411.339,611.376,1295.3,604.529c2.409-15.291,6.36-26.158,13.031-35.643a41.174,41.174,0,0,1,27.741-16.915c15.359-2.26,29.96-2.247,42.275,1.6a40.911,40.911,0,0,1,25.778,24.182c3.83,9.729,6.063,19.27,7.213,33.627" transform="translate(-616.93 -123.408)"/>
    <rect id="Rectangle_57838" data-name="Rectangle 57838" width="2.261" height="48.102" transform="translate(948.623 442.195)"/>
    <path id="Path_277384" data-name="Path 277384" d="M1295.259,602.209a69.689,69.689,0,0,0-5.786,13.332,112,112,0,0,0-4.05,19.009,100.273,100.273,0,0,0-.637,23.6.461.461,0,0,1-.368.5,2.48,2.48,0,0,1-2.912-1.486,87.187,87.187,0,0,1-4.165-24.955c4.125-8.461,7.156-20.031,14.611-28.748a5.517,5.517,0,0,1,3.306-1.252" transform="translate(-607.197 -151.462)" fill="#1a1a1a"/>
    <path id="Path_277385" data-name="Path 277385" d="M2266.062,642.429a113.641,113.641,0,0,0-3.095,22.066,126.49,126.49,0,0,0,.782,19.677.4.4,0,0,1-.312.438,2.246,2.246,0,0,1-2.53-1.256c-1.22-2.662-2.852-16.828-3.4-19.565,1.559-8.209,4.07-13.306,6.812-20.27a1.766,1.766,0,0,1,1.622-1.087Z" transform="translate(-1138.352 -173.257)" fill="#1a1a1a"/>
    <path id="Path_277386" data-name="Path 277386" d="M2283.095,616.03a50.816,50.816,0,1,0,50.817-50.816,50.816,50.816,0,0,0-50.817,50.816" transform="translate(-1152.219 -131.414)" fill="#404040"/>
    <path id="Path_277387" data-name="Path 277387" d="M2363.969,671.462a25.585,25.585,0,1,1,25.374-25.795,25.592,25.592,0,0,1-25.374,25.795" transform="translate(-1182.066 -161.261)" fill="#ccc"/>
    <path id="Path_277388" data-name="Path 277388" d="M2359.142,612.219a29.284,29.284,0,1,0,29.523,29.042,29.285,29.285,0,0,0-29.523-29.042m.478,54.867a25.585,25.585,0,1,1,25.373-25.795,25.592,25.592,0,0,1-25.373,25.795" transform="translate(-1177.691 -156.886)" fill="#e6e6e6"/>
    <path id="Path_277389" data-name="Path 277389" d="M2369.11,651.229a13.182,13.182,0,1,0,18.642,0,13.182,13.182,0,0,0-18.642,0" transform="translate(-1196.738 -175.934)" fill="#e6e6e6"/>
    <path id="Path_277390" data-name="Path 277390" d="M2334.652,572.837a53.378,53.378,0,0,1,50.19,35.214,50.822,50.822,0,0,0-100.382,0,53.377,53.377,0,0,1,50.191-35.214" transform="translate(-1152.959 -131.415)" fill="#595959"/>
    <path id="Path_277391" data-name="Path 277391" d="M2334.65,728.777a53.377,53.377,0,0,1-50.19-35.214,50.822,50.822,0,0,0,100.382,0,53.377,53.377,0,0,1-50.191,35.214" transform="translate(-1152.959 -200.967)" fill="#262626"/>
    <path id="Path_277392" data-name="Path 277392" d="M2362.171,614.456a31.15,31.15,0,0,1,26.966,15.058,29.278,29.278,0,0,0-53.431.006,31.222,31.222,0,0,1,26.465-15.064" transform="translate(-1180.729 -156.886)" fill="#ccc"/>
    <path id="Path_277393" data-name="Path 277393" d="M2362.672,717.363a31.151,31.151,0,0,1-26.966-15.058,29.278,29.278,0,0,0,53.431-.005,31.222,31.222,0,0,1-26.465,15.064" transform="translate(-1180.729 -205.701)" fill="#fafafa"/>
    <path id="Path_277394" data-name="Path 277394" d="M2363.3,701.356a26.341,26.341,0,0,1-24.779-19.534,25.584,25.584,0,0,0,50.9-.007,26.36,26.36,0,0,1-26.124,19.541" transform="translate(-1182.256 -194.601)" fill="#b3b3b3"/>
    <path id="Path_277395" data-name="Path 277395" d="M2364.648,623.738a26.34,26.34,0,0,1,24.778,19.534,25.584,25.584,0,0,0-50.9.007,26.361,26.361,0,0,1,26.125-19.541" transform="translate(-1182.256 -161.261)" fill="#b3b3b3"/>
    <path id="Path_277396" data-name="Path 277396" d="M2388.646,654.859a14.218,14.218,0,0,1,3.039,4.5,13.18,13.18,0,0,0-26.253,0,14.266,14.266,0,0,1,23.215-4.5" transform="translate(-1196.838 -175.934)" fill="#999"/>
    <path id="Path_277397" data-name="Path 277397" d="M2383.207,665.326a5.723,5.723,0,1,0,8.094,0,5.724,5.724,0,0,0-8.094,0" transform="translate(-1205.562 -184.757)"/>
    <path id="Path_277398" data-name="Path 277398" d="M2384.778,666.9a4.892,4.892,0,1,0,6.919,0,4.893,4.893,0,0,0-6.919,0" transform="translate(-1206.545 -185.739)" fill="gray"/>
    <path id="Path_277399" data-name="Path 277399" d="M2393.131,670.083a5.173,5.173,0,0,0-2.924-3.207A5.114,5.114,0,0,0,2384.6,668a5.186,5.186,0,0,0-1.253,2.08,4.972,4.972,0,0,1,1.422-3.17,4.854,4.854,0,0,1,3.47-1.451,4.847,4.847,0,0,1,3.471,1.451,4.975,4.975,0,0,1,1.422,3.17" transform="translate(-1206.545 -185.739)" fill="#ccc"/>
    <path id="Path_277400" data-name="Path 277400" d="M2393.131,676.738a5.157,5.157,0,0,1-1.256,2.079,5.109,5.109,0,0,1-7.276,0,5.183,5.183,0,0,1-1.253-2.079,4.972,4.972,0,0,0,1.422,3.17,4.854,4.854,0,0,0,3.47,1.451,4.847,4.847,0,0,0,3.471-1.451,4.975,4.975,0,0,0,1.422-3.17" transform="translate(-1206.545 -191.849)" fill="#4d4d4d"/>
    <path id="Path_277401" data-name="Path 277401" d="M2387.517,625.338a5.7,5.7,0,0,0,5.5-4.435,25.3,25.3,0,0,0-11-.01,5.666,5.666,0,0,0,5.5,4.445" transform="translate(-1205.824 -161.261)"/>
    <path id="Path_277402" data-name="Path 277402" d="M2354.011,636.141a5.7,5.7,0,0,0,.758-7.013,25.693,25.693,0,0,0-7.782,7.766,5.665,5.665,0,0,0,7.024-.752" transform="translate(-1186.843 -166.049)"/>
    <path id="Path_277403" data-name="Path 277403" d="M2343.219,669.639a5.7,5.7,0,0,0-4.433-5.5,25.179,25.179,0,0,0-.007,11,5.666,5.666,0,0,0,4.44-5.5" transform="translate(-1182.066 -185.023)"/>
    <path id="Path_277404" data-name="Path 277404" d="M2354.027,705.924a5.7,5.7,0,0,0-7.011-.76,25.715,25.715,0,0,0,7.764,7.782,5.667,5.667,0,0,0-.753-7.022" transform="translate(-1186.858 -206.784)"/>
    <path id="Path_277405" data-name="Path 277405" d="M2387.52,720.981a5.7,5.7,0,0,0-5.5,4.435,25.3,25.3,0,0,0,11,.01,5.665,5.665,0,0,0-5.5-4.445" transform="translate(-1205.827 -215.825)"/>
    <path id="Path_277406" data-name="Path 277406" d="M2423.806,705.912a5.7,5.7,0,0,0-.758,7.013,25.7,25.7,0,0,0,7.782-7.766,5.665,5.665,0,0,0-7.024.752" transform="translate(-1227.59 -206.772)"/>
    <path id="Path_277407" data-name="Path 277407" d="M2438.862,669.636a5.7,5.7,0,0,0,4.433,5.5,25.182,25.182,0,0,0,.008-11,5.665,5.665,0,0,0-4.441,5.5" transform="translate(-1236.63 -185.02)"/>
    <path id="Path_277408" data-name="Path 277408" d="M2423.794,636.131a5.7,5.7,0,0,0,7.009.76,25.7,25.7,0,0,0-7.763-7.782,5.666,5.666,0,0,0,.753,7.022" transform="translate(-1227.578 -166.039)"/>
    <path id="Path_277409" data-name="Path 277409" d="M2393.137,654.967h-1.385l-.692,1.2.692,1.2h1.385l.692-1.2Z" transform="translate(-1210.727 -180.052)" fill="#1a1a1a"/>
    <path id="Path_277410" data-name="Path 277410" d="M2379,660.06l-.979.979.359,1.337,1.336.358.979-.979-.358-1.337Z" transform="translate(-1203.661 -182.811)" fill="#1a1a1a"/>
    <path id="Path_277411" data-name="Path 277411" d="M2372.849,673.755v1.384l1.2.692,1.2-.692v-1.384l-1.2-.692Z" transform="translate(-1200.857 -189.858)" fill="#1a1a1a"/>
    <path id="Path_277412" data-name="Path 277412" d="M2377.941,688l.979.979,1.337-.358.359-1.337-.979-.979-1.337.358Z" transform="translate(-1203.616 -197.034)" fill="#1a1a1a"/>
    <path id="Path_277413" data-name="Path 277413" d="M2391.637,694.483h1.384l.692-1.2-.692-1.2h-1.384l-.692,1.2Z" transform="translate(-1210.663 -200.166)" fill="#1a1a1a"/>
    <path id="Path_277414" data-name="Path 277414" d="M2405.883,689.064l.979-.979-.358-1.337-1.337-.358-.979.978.358,1.337Z" transform="translate(-1217.84 -197.08)" fill="#1a1a1a"/>
    <path id="Path_277415" data-name="Path 277415" d="M2412.364,675.256v-1.384l-1.2-.692-1.2.692v1.384l1.2.692Z" transform="translate(-1220.972 -189.921)" fill="#1a1a1a"/>
    <path id="Path_277416" data-name="Path 277416" d="M2406.945,661.121l-.979-.979-1.337.358-.358,1.337.979.979,1.337-.358Z" transform="translate(-1217.885 -182.856)" fill="#1a1a1a"/>
    <path id="Path_277417" data-name="Path 277417" d="M1309.937,616.03a50.816,50.816,0,1,0,50.817-50.816,50.816,50.816,0,0,0-50.817,50.816" transform="translate(-624.86 -131.414)" fill="#404040"/>
    <path id="Path_277418" data-name="Path 277418" d="M1390.811,671.462a25.585,25.585,0,1,1,25.374-25.795,25.592,25.592,0,0,1-25.374,25.795" transform="translate(-654.708 -161.261)" fill="#ccc"/>
    <path id="Path_277419" data-name="Path 277419" d="M1385.984,612.219a29.284,29.284,0,1,0,29.523,29.042,29.285,29.285,0,0,0-29.523-29.042m.478,54.867a25.585,25.585,0,1,1,25.374-25.795,25.592,25.592,0,0,1-25.374,25.795" transform="translate(-650.332 -156.886)" fill="#e6e6e6"/>
    <path id="Path_277420" data-name="Path 277420" d="M1392.081,647.357a15.23,15.23,0,1,0,21.538,0,15.23,15.23,0,0,0-21.538,0" transform="translate(-666.957 -173.51)" fill="#e6e6e6"/>
    <path id="Path_277421" data-name="Path 277421" d="M1361.494,572.837a53.376,53.376,0,0,1,50.19,35.214,50.822,50.822,0,0,0-100.382,0,53.377,53.377,0,0,1,50.191-35.214" transform="translate(-625.601 -131.415)" fill="#595959"/>
    <path id="Path_277422" data-name="Path 277422" d="M1361.492,728.777a53.377,53.377,0,0,1-50.19-35.214,50.822,50.822,0,0,0,100.382,0,53.377,53.377,0,0,1-50.191,35.214" transform="translate(-625.601 -200.967)" fill="#262626"/>
    <path id="Path_277423" data-name="Path 277423" d="M1389.013,614.456a31.15,31.15,0,0,1,26.966,15.058,29.278,29.278,0,0,0-53.431.006,31.222,31.222,0,0,1,26.465-15.064" transform="translate(-653.371 -156.886)" fill="#ccc"/>
    <path id="Path_277424" data-name="Path 277424" d="M1389.514,717.363a31.151,31.151,0,0,1-26.966-15.058,29.278,29.278,0,0,0,53.431-.005,31.222,31.222,0,0,1-26.465,15.064" transform="translate(-653.371 -205.701)" fill="#fafafa"/>
    <path id="Path_277425" data-name="Path 277425" d="M1410.049,665.326a5.723,5.723,0,1,0,8.094,0,5.723,5.723,0,0,0-8.094,0" transform="translate(-678.203 -184.757)"/>
    <path id="Path_277426" data-name="Path 277426" d="M1396.556,682.9a13.523,13.523,0,0,1-2.89-4.28,12.538,12.538,0,0,0,24.975,0,13.573,13.573,0,0,1-22.084,4.28" transform="translate(-670.233 -192.868)" fill="#e6e6e6"/>
    <path id="Path_277427" data-name="Path 277427" d="M1411.62,666.9a4.892,4.892,0,1,0,6.919,0,4.892,4.892,0,0,0-6.919,0" transform="translate(-679.187 -185.739)" fill="gray"/>
    <path id="Path_277428" data-name="Path 277428" d="M1419.973,670.083a5.172,5.172,0,0,0-2.923-3.207,5.115,5.115,0,0,0-5.61,1.127,5.185,5.185,0,0,0-1.252,2.08,4.968,4.968,0,0,1,1.422-3.17,4.852,4.852,0,0,1,3.47-1.451,4.845,4.845,0,0,1,3.47,1.451,4.969,4.969,0,0,1,1.422,3.17" transform="translate(-679.187 -185.739)" fill="#ccc"/>
    <path id="Path_277429" data-name="Path 277429" d="M1419.973,676.738a5.176,5.176,0,0,1-2.923,3.207,5.114,5.114,0,0,1-5.61-1.128,5.183,5.183,0,0,1-1.252-2.079,4.968,4.968,0,0,0,1.422,3.17,4.852,4.852,0,0,0,3.47,1.451,4.845,4.845,0,0,0,3.47-1.451,4.97,4.97,0,0,0,1.422-3.17" transform="translate(-679.187 -191.849)" fill="#4d4d4d"/>
    <path id="Path_277430" data-name="Path 277430" d="M1419.98,652.306H1418.6l-.692,1.2.692,1.2h1.384l.692-1.2Z" transform="translate(-683.368 -178.61)" fill="#1a1a1a"/>
    <path id="Path_277431" data-name="Path 277431" d="M1403.963,658.178l-.979.979.358,1.337,1.337.359.979-.979-.358-1.337Z" transform="translate(-675.283 -181.792)" fill="#1a1a1a"/>
    <path id="Path_277432" data-name="Path 277432" d="M1397.03,673.755v1.384l1.2.692,1.2-.692v-1.384l-1.2-.692Z" transform="translate(-672.057 -189.858)" fill="#1a1a1a"/>
    <path id="Path_277433" data-name="Path 277433" d="M1402.9,689.883l.979.979,1.337-.358.359-1.337-.979-.979-1.337.358Z" transform="translate(-675.238 -198.054)" fill="#1a1a1a"/>
    <path id="Path_277434" data-name="Path 277434" d="M1418.479,697.144h1.384l.692-1.2-.692-1.2h-1.384l-.692,1.2Z" transform="translate(-683.305 -201.608)" fill="#1a1a1a"/>
    <path id="Path_277435" data-name="Path 277435" d="M1434.606,690.945l.979-.979-.358-1.337-1.337-.358-.979.979.358,1.337Z" transform="translate(-691.501 -198.099)" fill="#1a1a1a"/>
    <path id="Path_277436" data-name="Path 277436" d="M1441.867,675.256v-1.384l-1.2-.692-1.2.692v1.384l1.2.692Z" transform="translate(-695.055 -189.921)" fill="#1a1a1a"/>
    <path id="Path_277437" data-name="Path 277437" d="M1435.668,659.24l-.979-.979-1.337.358-.359,1.337.979.979,1.337-.358Z" transform="translate(-691.546 -181.836)" fill="#1a1a1a"/>
    <path id="Path_277438" data-name="Path 277438" d="M1416.188,645.652a25.388,25.388,0,0,1-1.636,9.25c.31-5.116-3.256-8.785-8.716-9.009a15.236,15.236,0,1,0-30.473,0c-5.444.224-8.992,3.893-8.682,9.009a25.135,25.135,0,0,1-1.654-8.82,25.581,25.581,0,1,1,51.161-.431" transform="translate(-654.714 -161.253)" fill="#999"/>
    <path id="Path_277439" data-name="Path 277439" d="M1391.692,629.591c0-1.332,1.626-2.411,3.632-2.411s3.632,1.079,3.632,2.411c0,2.17-7.265,2.17-7.264,0m-5.2,1.688c-.782-1.077-2.733-.995-4.356.185s-2.3,3.008-1.521,4.085c1.276,1.756,7.153-2.514,5.877-4.27m-9.089,8.69c-1.266-.411-2.8.8-3.415,2.709s-.1,3.788,1.17,4.2c2.065.671,4.309-6.237,2.245-6.909m-2.245,12.373c-1.266.411-1.79,2.291-1.17,4.2s2.149,3.121,3.415,2.71c2.065-.671-.18-7.58-2.245-6.909m5.456,11.329c-.783,1.078-.1,2.907,1.521,4.085s3.573,1.262,4.356.185c1.276-1.756-4.6-6.026-5.877-4.27m11.073,5.958c0,1.331,1.626,2.411,3.632,2.411s3.632-1.08,3.632-2.411c0-2.171-7.264-2.171-7.264,0m12.461-1.689c.782,1.077,2.733.994,4.356-.184s2.3-3.008,1.521-4.086c-1.276-1.756-7.153,2.514-5.877,4.27m9.088-8.69c1.267.412,2.8-.8,3.416-2.709s.1-3.788-1.17-4.2c-2.065-.671-4.309,6.238-2.245,6.909m2.245-12.372c1.266-.411,1.79-2.292,1.17-4.2s-2.149-3.121-3.416-2.709c-2.064.671.181,7.579,2.245,6.909m-5.456-11.329c.783-1.077.1-2.906-1.521-4.085s-3.573-1.262-4.356-.185c-1.276,1.756,4.6,6.026,5.877,4.27" transform="translate(-659.431 -164.994)"/>
    <path id="Path_277440" data-name="Path 277440" d="M1743.048,458.762a.814.814,0,0,0,.814.815.837.837,0,0,0,.9-.815V439.817a.815.815,0,0,0-.815-.815.837.837,0,0,0-.9.815Z" transform="translate(-859.565 -63.019)"/>
    <path id="Path_277441" data-name="Path 277441" d="M1760.442,458.762a.814.814,0,0,0,.814.815.837.837,0,0,0,.9-.815V439.817a.814.814,0,0,0-.814-.815.836.836,0,0,0-.9.815Z" transform="translate(-868.991 -63.019)"/>
    <path id="Path_277442" data-name="Path 277442" d="M1777.835,458.762a.814.814,0,0,0,.814.815.837.837,0,0,0,.9-.815V439.817a.814.814,0,0,0-.814-.815.837.837,0,0,0-.9.815Z" transform="translate(-878.416 -63.019)"/>
    <path id="Path_277443" data-name="Path 277443" d="M1795.229,458.762a.814.814,0,0,0,.814.815.837.837,0,0,0,.9-.815V439.817a.814.814,0,0,0-.814-.815.837.837,0,0,0-.9.815Z" transform="translate(-887.843 -63.019)"/>
    <path id="Path_277444" data-name="Path 277444" d="M1812.623,458.762a.814.814,0,0,0,.814.815.837.837,0,0,0,.9-.815V439.817a.814.814,0,0,0-.814-.815.837.837,0,0,0-.9.815Z" transform="translate(-897.269 -63.019)"/>
    <path id="Path_277445" data-name="Path 277445" d="M1833.609,444.577a1.537,1.537,0,1,0,1.537-1.537,1.539,1.539,0,0,0-1.537,1.537" transform="translate(-908.641 -65.207)" fill="#bf0a0a"/>
    <path id="Path_277446" data-name="Path 277446" d="M1849.641,444.577a1.537,1.537,0,1,0,1.537-1.537,1.539,1.539,0,0,0-1.537,1.537" transform="translate(-917.328 -65.207)" fill="#bf0a0a"/>
    <path id="Path_277447" data-name="Path 277447" d="M1833.609,459.639a1.537,1.537,0,1,0,1.537-1.537,1.539,1.539,0,0,0-1.537,1.537" transform="translate(-908.641 -73.37)" fill="#bf6c0a"/>
    <path id="Path_277448" data-name="Path 277448" d="M1849.641,459.639a1.537,1.537,0,1,0,1.537-1.537,1.539,1.539,0,0,0-1.537,1.537" transform="translate(-917.328 -73.37)" fill="#bf6c0a"/>
    <path id="Path_277449" data-name="Path 277449" d="M1833.609,474.7a1.537,1.537,0,1,0,1.537-1.537,1.539,1.539,0,0,0-1.537,1.537" transform="translate(-908.641 -81.532)" fill="#088f30"/>
    <path id="Path_277450" data-name="Path 277450" d="M1849.641,474.7a1.537,1.537,0,1,0,1.537-1.537,1.539,1.539,0,0,0-1.537,1.537" transform="translate(-917.328 -81.532)" fill="#088f30"/>
    <rect id="Rectangle_57839" data-name="Rectangle 57839" width="0.442" height="26.388" transform="translate(921.354 372.438)" fill="#999"/>
    <path id="Path_277451" data-name="Path 277451" d="M1732.731,430.3h59.2v27.271h-59.2Zm58.753.442h-58.311V457.13h58.311Z" transform="translate(-853.975 -58.304)" fill="#999"/>
    <path id="Path_277452" data-name="Path 277452" d="M1744.763,454.345v7.515c0,.789-.969.789-.969,0v-7.553Z" transform="translate(-859.97 -71.313)" fill="#b3b3b3"/>
    <path id="Path_277453" data-name="Path 277453" d="M1740.109,447.054a2.2,2.2,0,1,0,2.2-2.2,2.2,2.2,0,0,0-2.2,2.2" transform="translate(-857.973 -66.189)" fill="gray"/>
    <path id="Path_277454" data-name="Path 277454" d="M1743.565,446.93a1.02,1.02,0,1,0,1.02-1.021,1.021,1.021,0,0,0-1.02,1.021" transform="translate(-859.846 -66.762)" fill="#e6e6e6"/>
    <path id="Path_277455" data-name="Path 277455" d="M1762.157,454.345v7.515c0,.789-.969.789-.969,0v-7.553Z" transform="translate(-869.396 -71.313)" fill="#b3b3b3"/>
    <path id="Path_277456" data-name="Path 277456" d="M1757.5,447.054a2.2,2.2,0,1,0,2.2-2.2,2.2,2.2,0,0,0-2.2,2.2" transform="translate(-867.397 -66.189)" fill="gray"/>
    <path id="Path_277457" data-name="Path 277457" d="M1760.959,446.93a1.02,1.02,0,1,0,1.02-1.021,1.021,1.021,0,0,0-1.02,1.021" transform="translate(-869.271 -66.762)" fill="#e6e6e6"/>
    <path id="Path_277458" data-name="Path 277458" d="M1779.551,454.345v7.515c0,.789-.969.789-.969,0v-7.553Z" transform="translate(-878.821 -71.313)" fill="#b3b3b3"/>
    <path id="Path_277459" data-name="Path 277459" d="M1774.9,447.054a2.2,2.2,0,1,0,2.2-2.2,2.2,2.2,0,0,0-2.2,2.2" transform="translate(-876.824 -66.189)" fill="gray"/>
    <path id="Path_277460" data-name="Path 277460" d="M1778.353,446.93a1.02,1.02,0,1,0,1.02-1.021,1.021,1.021,0,0,0-1.02,1.021" transform="translate(-878.697 -66.762)" fill="#e6e6e6"/>
    <path id="Path_277461" data-name="Path 277461" d="M1796.945,454.345v7.515c0,.789-.97.789-.97,0v-7.553Z" transform="translate(-888.246 -71.313)" fill="#b3b3b3"/>
    <path id="Path_277462" data-name="Path 277462" d="M1792.29,447.054a2.2,2.2,0,1,0,2.2-2.2,2.2,2.2,0,0,0-2.2,2.2" transform="translate(-886.25 -66.189)" fill="gray"/>
    <path id="Path_277463" data-name="Path 277463" d="M1795.747,446.93a1.02,1.02,0,1,0,1.02-1.021,1.02,1.02,0,0,0-1.02,1.021" transform="translate(-888.123 -66.762)" fill="#e6e6e6"/>
    <path id="Path_277464" data-name="Path 277464" d="M1814.338,454.345v7.515c0,.789-.969.789-.969,0v-7.553Z" transform="translate(-897.673 -71.313)" fill="#b3b3b3"/>
    <path id="Path_277465" data-name="Path 277465" d="M1809.684,447.054a2.2,2.2,0,1,0,2.2-2.2,2.2,2.2,0,0,0-2.2,2.2" transform="translate(-895.676 -66.189)" fill="gray"/>
    <path id="Path_277466" data-name="Path 277466" d="M1813.141,446.93a1.02,1.02,0,1,0,1.02-1.021,1.02,1.02,0,0,0-1.02,1.021" transform="translate(-897.549 -66.762)" fill="#e6e6e6"/>
    <rect id="Rectangle_57840" data-name="Rectangle 57840" width="1.104" height="15.374" transform="translate(649.719 447.268)" fill="gray"/>
    <rect id="Rectangle_57841" data-name="Rectangle 57841" width="1.104" height="7.769" transform="translate(649.719 447.268)" fill="#e6e6e6"/>
    <path id="Path_277467" data-name="Path 277467" d="M1228.361,610.026h-2.4a1.316,1.316,0,0,1-1.316-1.316V596.387a1.316,1.316,0,0,1,1.316-1.316h2.4Z" transform="translate(-578.644 -147.594)" fill="#f29f3c"/>
    <path id="Path_277468" data-name="Path 277468" d="M1230.286,613.233h-1.043a1.042,1.042,0,0,1-1.042-1.042v-10.16a1.042,1.042,0,0,1,1.042-1.042h1.043Z" transform="translate(-580.567 -150.801)" fill="#bf6c0a"/>
    <path id="Path_277469" data-name="Path 277469" d="M1265.3,572.029a4.63,4.63,0,1,0-6.514,6.49,4.193,4.193,0,0,1-.942-2.651,4.3,4.3,0,0,1,.042-.594,4.2,4.2,0,0,1,8.315,0,4.353,4.353,0,0,1,.042.594,4.194,4.194,0,0,1-.942,2.651,3.891,3.891,0,0,0,0-6.49" transform="translate(-596.196 -134.458)" fill="#b3b3b3"/>
    <path id="Path_277470" data-name="Path 277470" d="M1258.8,576.861a4.2,4.2,0,1,0,4.2-4.2,4.2,4.2,0,0,0-4.2,4.2" transform="translate(-597.147 -135.451)" fill="#9d3011"/>
    <path id="Path_277471" data-name="Path 277471" d="M1270.987,574.411V576.3c-.111-.041-.228-.078-.351-.111v-1.927a3.59,3.59,0,0,1,.351.145" transform="translate(-603.563 -136.319)" fill="#d83d12"/>
    <path id="Path_277472" data-name="Path 277472" d="M1270.221,574.141v1.927c-.112-.03-.228-.057-.35-.08v-1.952c.119.029.236.064.35.1" transform="translate(-603.148 -136.195)" fill="#f1a08a"/>
    <path id="Path_277473" data-name="Path 277473" d="M1268.693,573.851v1.968c-.113-.012-.23-.02-.351-.025v-1.976q.178.008.351.033" transform="translate(-602.32 -136.077)" fill="#f1a08a"/>
    <path id="Path_277474" data-name="Path 277474" d="M1271.751,574.773v1.85c-.109-.053-.227-.1-.35-.148v-1.893a3.665,3.665,0,0,1,.35.191" transform="translate(-603.978 -136.491)" fill="#f1a08a"/>
    <path id="Path_277475" data-name="Path 277475" d="M1269.457,573.957v1.951c-.112-.021-.229-.038-.35-.051V573.89q.178.025.35.067" transform="translate(-602.734 -136.116)" fill="#d83d12"/>
    <path id="Path_277476" data-name="Path 277476" d="M1274.045,576.632v1.629a3.908,3.908,0,0,0-.35-.314v-1.734a3.736,3.736,0,0,1,.35.419" transform="translate(-605.221 -137.374)" fill="#d83d12"/>
    <path id="Path_277477" data-name="Path 277477" d="M1275.573,579.983c0,.4-.072.228-.35-.125v-1.433a3.651,3.651,0,0,1,.35,1.558" transform="translate(-606.049 -138.573)" fill="#d83d12"/>
    <path id="Path_277478" data-name="Path 277478" d="M1274.809,577.722v1.433a4.616,4.616,0,0,0-.35-.4v-1.629a3.627,3.627,0,0,1,.35.594" transform="translate(-605.635 -137.87)" fill="#f1a08a"/>
    <path id="Path_277479" data-name="Path 277479" d="M1267.753,573.8c.059,0,.117.006.175.009v1.976c-.058,0-.115-.006-.175-.006s-.117,0-.175.006v-1.976c.058,0,.116-.009.175-.009" transform="translate(-601.906 -136.066)" fill="#d83d12"/>
    <path id="Path_277480" data-name="Path 277480" d="M1273.28,575.843v1.733a3.829,3.829,0,0,0-.35-.248v-1.8a3.733,3.733,0,0,1,.35.313" transform="translate(-604.806 -137.004)" fill="#f1a08a"/>
    <path id="Path_277481" data-name="Path 277481" d="M1272.516,575.242v1.8a3.862,3.862,0,0,0-.351-.193V575a3.671,3.671,0,0,1,.351.244" transform="translate(-604.392 -136.716)" fill="#d83d12"/>
    <path id="Path_277482" data-name="Path 277482" d="M1262.575,575.53v1.8a3.819,3.819,0,0,0-.35.248v-1.734a3.718,3.718,0,0,1,.35-.313" transform="translate(-599.005 -137.004)" fill="#f1a08a"/>
    <path id="Path_277483" data-name="Path 277483" d="M1263.34,575v1.85a3.876,3.876,0,0,0-.35.193v-1.8a3.8,3.8,0,0,1,.35-.244" transform="translate(-599.42 -136.716)" fill="#d83d12"/>
    <path id="Path_277484" data-name="Path 277484" d="M1261.812,576.214v1.734a3.947,3.947,0,0,0-.35.314v-1.63a3.713,3.713,0,0,1,.35-.418" transform="translate(-598.592 -137.375)" fill="#d83d12"/>
    <path id="Path_277485" data-name="Path 277485" d="M1267.164,573.818v1.975c-.121.005-.238.013-.35.026v-1.968q.172-.025.35-.033" transform="translate(-601.492 -136.077)" fill="#f1a08a"/>
    <path id="Path_277486" data-name="Path 277486" d="M1260.282,579.858c-.278.353-.35.522-.35.125a3.662,3.662,0,0,1,.35-1.559Z" transform="translate(-597.763 -138.573)" fill="#d83d12"/>
    <path id="Path_277487" data-name="Path 277487" d="M1261.047,577.127v1.629a4.643,4.643,0,0,0-.351.4v-1.433a3.674,3.674,0,0,1,.351-.595" transform="translate(-598.177 -137.87)" fill="#f1a08a"/>
    <path id="Path_277488" data-name="Path 277488" d="M1265.635,574.037v1.952c-.122.022-.238.049-.35.08v-1.927q.172-.06.35-.1" transform="translate(-600.663 -136.195)" fill="#f1a08a"/>
    <path id="Path_277489" data-name="Path 277489" d="M1266.4,573.89v1.968c-.121.013-.238.03-.35.051v-1.951q.172-.042.35-.067" transform="translate(-601.077 -136.116)" fill="#d83d12"/>
    <path id="Path_277490" data-name="Path 277490" d="M1264.105,574.582v1.893c-.123.045-.24.094-.35.148v-1.85a3.731,3.731,0,0,1,.35-.191" transform="translate(-599.834 -136.491)" fill="#f1a08a"/>
    <path id="Path_277491" data-name="Path 277491" d="M1264.87,574.265v1.927c-.122.033-.24.07-.35.111V574.41a3.715,3.715,0,0,1,.35-.145" transform="translate(-600.249 -136.319)" fill="#d83d12"/>
    <path id="Path_277492" data-name="Path 277492" d="M1270.221,580.24v4.138a3.485,3.485,0,0,1-.35.1v-4.345a3.3,3.3,0,0,1,.35.1" transform="translate(-603.148 -139.501)" fill="#b53512"/>
    <path id="Path_277493" data-name="Path 277493" d="M1270.987,580.5v3.848a3.5,3.5,0,0,1-.351.147V580.36a3.08,3.08,0,0,1,.351.143" transform="translate(-603.563 -139.622)" fill="#cc3a12"/>
    <path id="Path_277494" data-name="Path 277494" d="M1268.693,579.97v4.472c-.115.016-.232.027-.351.032v-4.535c.122.006.239.016.351.031" transform="translate(-602.32 -139.394)" fill="#b53512"/>
    <path id="Path_277495" data-name="Path 277495" d="M1269.457,580.067v4.345c-.115.028-.232.049-.35.066v-4.472c.122.016.24.035.35.061" transform="translate(-602.734 -139.43)" fill="#cc3a12"/>
    <path id="Path_277496" data-name="Path 277496" d="M1271.751,580.875v3.458a3.746,3.746,0,0,1-.35.19v-3.849a3,3,0,0,1,.35.2" transform="translate(-603.978 -139.792)" fill="#b53512"/>
    <path id="Path_277497" data-name="Path 277497" d="M1273.853,582.735a2.609,2.609,0,0,0,.191.231v1.4a3.7,3.7,0,0,1-.35.417v-2.247c.06.074.113.143.159.2" transform="translate(-605.221 -140.799)" fill="#cc3a12"/>
    <path id="Path_277498" data-name="Path 277498" d="M1272.516,581.39v2.935a3.678,3.678,0,0,1-.351.246v-3.458a3.06,3.06,0,0,1,.351.277" transform="translate(-604.392 -140.03)" fill="#cc3a12"/>
    <path id="Path_277499" data-name="Path 277499" d="M1275.42,584.052a3.68,3.68,0,0,1-.2.513V584a.814.814,0,0,0,.2.051" transform="translate(-606.049 -141.595)" fill="#cc3a12"/>
    <path id="Path_277500" data-name="Path 277500" d="M1274.809,583.718v.565a3.642,3.642,0,0,1-.35.593v-1.4a.98.98,0,0,0,.35.239" transform="translate(-605.635 -141.312)" fill="#b53512"/>
    <path id="Path_277501" data-name="Path 277501" d="M1273.28,582.091v2.247a3.769,3.769,0,0,1-.35.314v-2.935a3.547,3.547,0,0,1,.35.373" transform="translate(-604.806 -140.358)" fill="#b53512"/>
    <path id="Path_277502" data-name="Path 277502" d="M1267.744,579.922c.064,0,.123.005.184.008v4.535c-.058,0-.116.007-.175.007s-.117,0-.175-.007v-4.536c.055,0,.109-.007.166-.007" transform="translate(-601.906 -139.384)" fill="#cc3a12"/>
    <path id="Path_277503" data-name="Path 277503" d="M1263.34,581.109v3.459a3.686,3.686,0,0,1-.35-.246v-2.935a2.939,2.939,0,0,1,.35-.278" transform="translate(-599.42 -140.028)" fill="#cc3a12"/>
    <path id="Path_277504" data-name="Path 277504" d="M1262.575,581.716v2.935a3.736,3.736,0,0,1-.35-.314V582.09a3.53,3.53,0,0,1,.35-.374" transform="translate(-599.005 -140.357)" fill="#b53512"/>
    <path id="Path_277505" data-name="Path 277505" d="M1261.654,582.735c.045-.06.1-.129.158-.2v2.247a3.677,3.677,0,0,1-.35-.417v-1.4a2.556,2.556,0,0,0,.192-.231" transform="translate(-598.592 -140.799)" fill="#cc3a12"/>
    <path id="Path_277506" data-name="Path 277506" d="M1261.047,583.479v1.4a3.69,3.69,0,0,1-.351-.593v-.564a.971.971,0,0,0,.351-.239" transform="translate(-598.177 -141.312)" fill="#b53512"/>
    <path id="Path_277507" data-name="Path 277507" d="M1267.164,579.938v4.536c-.118-.006-.235-.016-.35-.033v-4.473c.111-.014.228-.024.35-.03" transform="translate(-601.492 -139.393)" fill="#b53512"/>
    <path id="Path_277508" data-name="Path 277508" d="M1260.464,584v.564a3.656,3.656,0,0,1-.2-.513.815.815,0,0,0,.2-.051" transform="translate(-597.944 -141.595)" fill="#cc3a12"/>
    <path id="Path_277509" data-name="Path 277509" d="M1266.4,580v4.473a3.536,3.536,0,0,1-.35-.066v-4.347c.11-.025.229-.044.35-.06" transform="translate(-601.077 -139.428)" fill="#cc3a12"/>
    <path id="Path_277510" data-name="Path 277510" d="M1264.105,580.668v3.851a3.623,3.623,0,0,1-.35-.19V580.87a2.869,2.869,0,0,1,.35-.2" transform="translate(-599.834 -139.789)" fill="#b53512"/>
    <path id="Path_277511" data-name="Path 277511" d="M1265.635,580.133v4.347c-.119-.029-.236-.065-.35-.1v-4.141a3.374,3.374,0,0,1,.35-.1" transform="translate(-600.663 -139.499)" fill="#b53512"/>
    <path id="Path_277512" data-name="Path 277512" d="M1264.87,580.355V584.5a3.536,3.536,0,0,1-.35-.147V580.5a3.118,3.118,0,0,1,.35-.143" transform="translate(-600.249 -139.619)" fill="#cc3a12"/>
    <path id="Path_277513" data-name="Path 277513" d="M1270.221,588.629v.35a3.608,3.608,0,0,1-.35.107v-.359c.119-.027.236-.06.35-.1" transform="translate(-603.148 -144.103)" fill="#cc3a12"/>
    <path id="Path_277514" data-name="Path 277514" d="M1269.457,588.842v.359c-.115.028-.231.049-.35.066v-.361c.119-.016.235-.038.35-.064" transform="translate(-602.734 -144.218)" fill="#f1a08a"/>
    <path id="Path_277515" data-name="Path 277515" d="M1270.987,588.341v.337a3.572,3.572,0,0,1-.351.144v-.35c.119-.039.237-.082.351-.132" transform="translate(-603.563 -143.947)" fill="#f1a08a"/>
    <path id="Path_277516" data-name="Path 277516" d="M1274.809,585.046v.085a3.688,3.688,0,0,1-.35.592v-.206a3.9,3.9,0,0,0,.35-.472" transform="translate(-605.635 -142.161)" fill="#cc3a12"/>
    <path id="Path_277517" data-name="Path 277517" d="M1271.751,587.954v.325a3.714,3.714,0,0,1-.35.189v-.337c.12-.053.236-.113.35-.177" transform="translate(-603.978 -143.737)" fill="#cc3a12"/>
    <path id="Path_277518" data-name="Path 277518" d="M1274.045,586.076v.206a3.7,3.7,0,0,1-.35.416v-.264a3.973,3.973,0,0,0,.35-.358" transform="translate(-605.221 -142.719)" fill="#f1a08a"/>
    <path id="Path_277519" data-name="Path 277519" d="M1275.347,584.591c-.037.1-.079.2-.124.294V584.8c.043-.068.085-.138.124-.209" transform="translate(-606.049 -141.915)" fill="#f1a08a"/>
    <path id="Path_277520" data-name="Path 277520" d="M1273.28,586.858v.264a3.629,3.629,0,0,1-.35.316v-.3a3.882,3.882,0,0,0,.35-.281" transform="translate(-604.806 -143.143)" fill="#cc3a12"/>
    <path id="Path_277521" data-name="Path 277521" d="M1272.516,587.471v.3a3.647,3.647,0,0,1-.351.247v-.325a4.05,4.05,0,0,0,.351-.221" transform="translate(-604.392 -143.475)" fill="#f1a08a"/>
    <path id="Path_277522" data-name="Path 277522" d="M1267.164,589.011v.363c-.118-.005-.235-.016-.35-.032v-.361c.115.015.232.024.35.029" transform="translate(-601.492 -144.294)" fill="#cc3a12"/>
    <path id="Path_277523" data-name="Path 277523" d="M1264.105,588.131v.337a3.651,3.651,0,0,1-.35-.19v-.324c.114.064.23.125.35.177" transform="translate(-599.834 -143.737)" fill="#cc3a12"/>
    <path id="Path_277524" data-name="Path 277524" d="M1262.575,587.139v.3a3.705,3.705,0,0,1-.35-.316v-.264a3.987,3.987,0,0,0,.35.281" transform="translate(-599.005 -143.143)" fill="#cc3a12"/>
    <path id="Path_277525" data-name="Path 277525" d="M1263.34,587.692v.324a3.748,3.748,0,0,1-.35-.247v-.3a3.929,3.929,0,0,0,.35.221" transform="translate(-599.42 -143.475)" fill="#f1a08a"/>
    <path id="Path_277526" data-name="Path 277526" d="M1265.635,588.727v.358a3.588,3.588,0,0,1-.35-.107v-.349c.115.038.231.071.35.1" transform="translate(-600.663 -144.103)" fill="#cc3a12"/>
    <path id="Path_277527" data-name="Path 277527" d="M1264.87,588.473v.35a3.7,3.7,0,0,1-.35-.145v-.337c.114.05.231.093.35.132" transform="translate(-600.249 -143.947)" fill="#f1a08a"/>
    <path id="Path_277528" data-name="Path 277528" d="M1260.551,584.8v.085c-.045-.1-.087-.194-.124-.294.039.071.081.141.124.209" transform="translate(-598.031 -141.915)" fill="#f1a08a"/>
    <path id="Path_277529" data-name="Path 277529" d="M1261.812,586.435v.264a3.723,3.723,0,0,1-.35-.416v-.206a4.03,4.03,0,0,0,.35.358" transform="translate(-598.592 -142.72)" fill="#f1a08a"/>
    <path id="Path_277530" data-name="Path 277530" d="M1261.047,585.519v.206a3.663,3.663,0,0,1-.351-.592v-.085a3.966,3.966,0,0,0,.351.471" transform="translate(-598.177 -142.162)" fill="#cc3a12"/>
    <path id="Path_277531" data-name="Path 277531" d="M1267.753,589.053c.059,0,.117,0,.176-.006v.363c-.059,0-.116.007-.176.007s-.117,0-.175-.007v-.363c.058,0,.116.006.175.006" transform="translate(-601.906 -144.329)" fill="#f1a08a"/>
    <path id="Path_277532" data-name="Path 277532" d="M1266.4,588.906v.361c-.119-.017-.235-.039-.35-.066v-.358c.115.026.232.048.35.064" transform="translate(-601.077 -144.218)" fill="#f1a08a"/>
    <path id="Path_277533" data-name="Path 277533" d="M1268.693,588.982v.361c-.115.017-.232.027-.351.032v-.363c.118-.005.235-.014.351-.029" transform="translate(-602.32 -144.294)" fill="#cc3a12"/>
    <path id="Path_277534" data-name="Path 277534" d="M1266.813,581.5v-1.162a.783.783,0,0,1,.35-.184v1.53a.781.781,0,0,1-.35-.184" transform="translate(-601.491 -139.512)" fill="#f1a08a"/>
    <path id="Path_277535" data-name="Path 277535" d="M1267.578,581.664v-1.529a.779.779,0,0,1,.35,0v1.529a.793.793,0,0,1-.35,0" transform="translate(-601.906 -139.489)" fill="#e44013"/>
    <path id="Path_277536" data-name="Path 277536" d="M1269.138,580.583a.787.787,0,0,1,0,1.112c-.01.01-.021.016-.031.025v-1.163c.01.009.021.016.031.025" transform="translate(-602.734 -139.729)" fill="#e44013"/>
    <path id="Path_277537" data-name="Path 277537" d="M1266.474,581.7a.787.787,0,0,1,0-1.112c.01-.009.021-.016.031-.025v1.162c-.01-.009-.021-.016-.031-.025" transform="translate(-601.183 -139.729)" fill="#e44013"/>
    <path id="Path_277538" data-name="Path 277538" d="M1268.342,580.158a.783.783,0,0,1,.351.183V581.5a.78.78,0,0,1-.351.183Z" transform="translate(-602.32 -139.512)" fill="#f1a08a"/>
    <path id="Path_277539" data-name="Path 277539" d="M2290.837,504.466h-7.549a1.3,1.3,0,0,0-1.295,1.3v2.692a1.3,1.3,0,0,0,1.295,1.3h7.549a1.3,1.3,0,0,0,1.295-1.3v-2.692a1.3,1.3,0,0,0-1.295-1.3" transform="translate(-1151.622 -98.494)" fill="#1a1a1a"/>
    <path id="Path_277540" data-name="Path 277540" d="M2292.191,506.139a.977.977,0,0,0-.974-.974h-7.549a.977.977,0,0,0-.974.974v1.443h9.5Z" transform="translate(-1152.001 -98.873)" fill="#f29f3c"/>
    <path id="Path_277541" data-name="Path 277541" d="M2282.693,510.442v1.25a.977.977,0,0,0,.974.974h7.55a.977.977,0,0,0,.974-.974v-1.25Z" transform="translate(-1152.001 -101.733)" fill="#bf6c0a"/>
    <path id="Path_277542" data-name="Path 277542" d="M1267.039,581.124a5.037,5.037,0,1,1-10.074,0,4.862,4.862,0,0,1,.036-.594,5.024,5.024,0,0,0,1.744,3.245,4.2,4.2,0,0,0,6.514,0A5.025,5.025,0,0,0,1267,580.53a4.837,4.837,0,0,1,.036.594" transform="translate(-596.155 -139.714)" fill="#f2f2f2"/>
    <path id="Path_277543" data-name="Path 277543" d="M1991.287,498.694c3.521,3.191,13.327,3.586,17.858.574a30.18,30.18,0,0,0-9.855-1.441,33.441,33.441,0,0,0-8,.867" transform="translate(-994.087 -94.897)" fill="#ccccc9"/>
    <path id="Path_277544" data-name="Path 277544" d="M1990.885,513.776a32.489,32.489,0,0,0,8.187.916,29.705,29.705,0,0,0,10.081-1.531c-4.52-3.159-14.588-2.9-18.268.614" transform="translate(-993.869 -102.012)" fill="#f2f2f2"/>
    <path id="Path_277545" data-name="Path 277545" d="M2002.367,500.294c-3.261,2.2-10.358,2.8-15.175.942a8.778,8.778,0,0,1-2.682-1.516c-3.643.962-5.7,2.453-5.729,3.984h27.5c-.008-1.307-1.5-2.531-3.911-3.41" transform="translate(-987.31 -95.922)" fill="#f2f2f2"/>
    <path id="Path_277546" data-name="Path 277546" d="M1978.78,508.416c-.028,1.424,1.7,2.883,5.545,3.983,3.611-3.482,13.82-3.757,18.268-.614,2.273-.88,3.686-2.048,3.686-3.359,0-.01-27.5-.01-27.5-.01" transform="translate(-987.309 -100.635)" fill="#ccccc9"/>
    <path id="Path_277547" data-name="Path 277547" d="M1965.36,320.883l4.621,53.082a3.7,3.7,0,0,0,3.618,3.377l109.55,1.954c5.232.072,7.639-6.9,3.33-10.15-1.491-1.124-41.613-32.28-51.855-38.775a58.855,58.855,0,0,0-22.489-8.434c-14.337-2.241-28.74-3.741-43.172-4.734a3.392,3.392,0,0,0-3.6,3.679m1.284-.18a2.05,2.05,0,0,1,2.182-2.211c15.444,1.06,29.582,2.611,43.109,4.725a57.22,57.22,0,0,1,21.995,8.247c4.051,2.568,13.108,9.188,27.016,19.742l.215,26.413-87.634-1.556a2.3,2.3,0,0,1-2.244-2.094Z" transform="translate(-980.029 2.988)" fill="#1a1a1a"/>
    <path id="Path_277548" data-name="Path 277548" d="M2128.978,319.494l68.533,51.6,13.316-.109c-29.607-22.306-53.636-40.5-81.751-55.7a2.6,2.6,0,0,0-.1,4.21" transform="translate(-1068.147 4.024)" fill="#b7ccd6"/>
    <path id="Path_277549" data-name="Path 277549" d="M2296.225,425.148a2.267,2.267,0,0,0-1.216-2.258l-10.2-6.269-3.849-.106-4.688,1.01.8.868,5.275-.547,1.306.328,8.373,7.547s4.195-.529,4.2-.571" transform="translate(-1148.522 -50.833)" fill="#1a1a1a"/>
    <path id="Path_277550" data-name="Path 277550" d="M1968.168,322.232a2.05,2.05,0,0,1,2.182-2.211c15.444,1.06,29.582,2.611,43.109,4.725a57.219,57.219,0,0,1,21.995,8.247c4.051,2.568,13.108,9.188,27.016,19.742l.215,26.413-87.634-1.556a2.3,2.3,0,0,1-2.244-2.094Z" transform="translate(-981.555 1.46)" fill="#b7ccd6"/>
    <path id="Path_277551" data-name="Path 277551" d="M2203.712,365.615l-2.521.164a19.357,19.357,0,0,1-12.923-3.847L2136,322.589a2.292,2.292,0,0,1-.564-3.061l.328-.518c-1.406-.834-5.261-2.95-6.7-3.735a2.6,2.6,0,0,0-.094,4.208c7.8,5.877,60.006,45.179,68.54,51.6l13.316-.108q-3.613-2.72-7.118-5.359" transform="translate(-1068.146 4.029)" fill="#343f45"/>
    <path id="Path_277552" data-name="Path 277552" d="M2151.777,396.932a1.2,1.2,0,0,0-.469.563l-3.386,8.33-4.252.3,3.408-8.2a2.47,2.47,0,0,0-1.807-3.366,2.538,2.538,0,0,0-2.784,1.574l-9.583,23.049,19.056.339Z" transform="translate(-1070.83 -38.909)" fill="#343f45"/>
    <path id="Path_277553" data-name="Path 277553" d="M1978.691,359.728c.934-7.811-1.327-15.1-4.922-16.863,0,0-2.547-.879-4.129-1.217l3.969,45.572a2.293,2.293,0,0,0,2.244,2.094l4.508.08-7.694-15.926c3.319-1.547,5.206-6.9,6.024-13.741" transform="translate(-982.356 -10.263)" fill="#343f45"/>
    <path id="Path_277554" data-name="Path 277554" d="M2062.47,352.735c-13.908-10.554-22.966-17.174-27.017-19.742a57.216,57.216,0,0,0-21.995-8.247c-13.526-2.114-27.665-3.665-43.108-4.725a2.05,2.05,0,0,0-2.183,2.211l2.423,27.826,91.914,6.992Z" transform="translate(-981.555 1.46)" fill="#d1e1e8"/>
    <path id="Path_277555" data-name="Path 277555" d="M2156.329,394.555a2.54,2.54,0,0,0-2.784,1.574l-.235.564,5.01.381a2.469,2.469,0,0,0-1.99-2.52" transform="translate(-1081.888 -38.909)" fill="#6a7d8a"/>
    <path id="Path_277556" data-name="Path 277556" d="M1973.768,342.865s-2.546-.879-4.129-1.217l.6,6.891,1.153,13.241,6.925.527q.214-1.248.373-2.579c.934-7.812-1.327-15.1-4.922-16.863" transform="translate(-982.356 -10.263)" fill="#6a7d8a"/>
    <path id="Path_277557" data-name="Path 277557" d="M2189.556,407.324a5.4,5.4,0,1,1-3.971,10.035l-11.887.1a3.481,3.481,0,0,1-3.506-3.332l-.818-19.235a2.939,2.939,0,0,1,3.174-3.055l5.028.406a12.64,12.64,0,0,1,11.542,11.194Z" transform="translate(-1090.592 -37.454)" fill="#dededb"/>
    <path id="Path_277558" data-name="Path 277558" d="M2204.753,435.691a5.363,5.363,0,0,0,2.291.465,5.4,5.4,0,0,0,1.686-10.5l.643,5.789a3.808,3.808,0,0,1-3.756,4.237Z" transform="translate(-1109.766 -55.788)" fill="#4d4d4d"/>
    <path id="Path_277559" data-name="Path 277559" d="M2189.118,403.435a12.639,12.639,0,0,0-11.542-11.194l-5.028-.407a2.939,2.939,0,0,0-3.174,3.055l.422,9.934c0,4.763,19.478,4.763,19.478,0Z" transform="translate(-1090.592 -37.454)" fill="#e6e6e6"/>
    <path id="Path_277560" data-name="Path 277560" d="M2184.254,399.515a4.751,4.751,0,0,0-3-2.672,9.23,9.23,0,0,0-5.325-.289,3.943,3.943,0,0,0-1.858,1.4c-1.188,1.627-1.195,3.844-.726,9.28.063.736.133,1.454.211,2.158a35.1,35.1,0,0,0,1.03,5.659c.145.465.53,1.63,1.016,1.619s.781-1.182.891-1.645a30.533,30.533,0,0,0,.567-4.578c.054-.918.092-1.975.1-3.213.024-2.239-.018-3.317-.1-5.619-.035-1.28-.351-2.264,3.5-2.017a9.354,9.354,0,0,1,3.1.784c.252.084.5.1.61-.146a1.1,1.1,0,0,0-.016-.726" transform="translate(-1092.586 -39.868)" fill="#f2f2f2"/>
    <path id="Path_277561" data-name="Path 277561" d="M2558.576,666.464a13.49,13.49,0,0,1-7.45,3.946c-5.174.588-28.059,3.275-32.281,3.456-.069-.811-.158-1.557-.205-2.282l-.2.006c-.021-.217-.041-.431-.062-.645Z" transform="translate(-1279.72 -186.282)" fill="#ccccc9"/>
    <path id="Path_277562" data-name="Path 277562" d="M2554.413,660.842c5.68-.663,4.94,1.6,4.143,2.51l-40.2,4.481,0-.03a2.957,2.957,0,0,1,2.612-3.232Z" transform="translate(-1279.699 -183.17)" fill="#f2f2f2"/>
    <path id="Path_277563" data-name="Path 277563" d="M1702.758,682.031V685c-2.259,0-136.7-.131-154.011-.021-.048-.814-.113-1.536-.205-2.327-.018-.217-.036-.431-.054-.645Z" transform="translate(-754.133 -194.705)" fill="#ccccc9"/>
    <path id="Path_277564" data-name="Path 277564" d="M1702.743,678.516l-154.27-.024,0-.03a2.708,2.708,0,0,1,2.7-2.941l148.6.023a2.972,2.972,0,0,1,2.972,2.972" transform="translate(-754.117 -191.19)" fill="#f2f2f2"/>
    <path id="Path_277565" data-name="Path 277565" d="M2546.839,603.859l26.512.939c-.006-.716,2.578-1.463,2.572-2.18l-27.642-.818a1.5,1.5,0,0,0-1.442,2.059" transform="translate(-1295.083 -151.239)" fill="#b3b3b3"/>
    <path id="Path_277566" data-name="Path 277566" d="M1899.268,487.031V332.861a18.947,18.947,0,0,0-9.022-16.14s-.053,140.749-.061,170.31Z" transform="translate(-939.3 3.245)" fill="#ccccc9"/>
    <path id="Path_277567" data-name="Path 277567" d="M1883.9,456.612h-1.13V420.931l1.13-1.13Z" transform="translate(-935.28 -52.614)" fill="#ccccc9"/>
    <path id="Path_277568" data-name="Path 277568" d="M1269.789,606.653c-6.475,7.991-9.5,18.145-13.1,26.128-.324.644-.615,1.263-.859,1.837l-18.184-5.962v-22Z" transform="translate(-585.687 -153.87)" fill="#ccccc9"/>
    <path id="Path_277569" data-name="Path 277569" d="M1242.807,634.617a2.057,2.057,0,1,1,.891,2.77,2.059,2.059,0,0,1-.891-2.77m-.363-.186a2.465,2.465,0,1,0,3.319-1.068,2.468,2.468,0,0,0-3.319,1.068" transform="translate(-588.139 -168.197)" fill="#999"/>
    <path id="Path_277570" data-name="Path 277570" d="M2329.9,433.9c27.477,7.935,79.763,9.3,103.277,26.752a8.371,8.371,0,0,1,5.542-3.291c-32.383-18.367-108.543-23.5-108.543-23.5Z" transform="translate(-1177.581 -60.233)" fill="#f2f2f2"/>
    <path id="Path_277571" data-name="Path 277571" d="M2523.218,569.195a48.462,48.462,0,0,0,5.825,1.078,109.155,109.155,0,0,0,13.633.612c.484,0,5.641-.029,6.756-.05,1.47-.065,4.92-.031,4.937-3.672a3.694,3.694,0,0,0-.618-2.161,3.843,3.843,0,0,0-2.9-1.34c-3.672-.249-12.786.382-20.376-.405-6.4-.6-9.731-1.893-14.358-2.18-1.473-.085-4.556-.115-4.962,1.3-.4,1.39,2.213,2.93,3.5,3.6a46.683,46.683,0,0,0,8.558,3.214" transform="translate(-1275.785 -129.153)" fill="#f2f2f2"/>
    <path id="Path_277572" data-name="Path 277572" d="M2558.88,645.968h23.789c-.11-.63-2.574-1.267-2.591-1.941-.007-.007-18.743.455-18.743.455a3.01,3.01,0,0,0-2.454,1.486" transform="translate(-1301.668 -174.123)" fill="#f2f2f2"/>
    <path id="Path_277573" data-name="Path 277573" d="M1414.773,574.687a2.064,2.064,0,0,0,2.059-2.176,102.554,102.554,0,0,0-2.489-17.661,49.665,49.665,0,0,0-16.837-26.833A50.673,50.673,0,0,0,1379,518.384c-13.376-4.042-28.034-3.914-42.024-1.443a53.628,53.628,0,0,0-20.561,7.658,49.865,49.865,0,0,0-15.889,16.313,66.388,66.388,0,0,0-4.446,9.421,3.369,3.369,0,0,0,3.162,4.542,69.63,69.63,0,0,1,4.974-8.214,46.778,46.778,0,0,1,31.381-19.149c14.51-2.133,30.541-2.618,44.661,1.787a46.546,46.546,0,0,1,29.2,27.366,102.814,102.814,0,0,1,5.313,18.02" transform="translate(-617.233 -104.309)" fill="#f2f2f2"/>
    <path id="Path_277574" data-name="Path 277574" d="M1706.943,420.931V419.8h81.675l-1.13,1.13Z" transform="translate(-840 -52.615)" fill="#f2f2f2"/>
    <path id="Path_277575" data-name="Path 277575" d="M1236.31,605.892l-1.13-.37V565.148l1.13-.5Z" transform="translate(-584.35 -131.107)" fill="#f2f2f2"/>
    <rect id="Rectangle_57842" data-name="Rectangle 57842" width="1.13" height="36.819" transform="translate(865.814 367.179)" fill="#f2f2f2"/>
    <path id="Path_277576" data-name="Path 277576" d="M2077.268,619.341c-37.142.12-64.355.384-101.126-.333-8.513-.168-17.353-5.645-19.662-11.894a19.835,19.835,0,0,0,5.767,13.364c5.405,5.4,11.98,5.777,19.182,5.777h104.132Z" transform="translate(-975.225 -154.12)" fill="#f2f2f2"/>
    <path id="Path_277577" data-name="Path 277577" d="M1688.043,619.341c-37.142.12-64.355.384-101.126-.333-8.513-.168-17.353-5.645-19.663-11.894a19.833,19.833,0,0,0,5.768,13.364c5.4,5.4,11.98,5.777,19.182,5.777h104.133Z" transform="translate(-764.303 -154.12)" fill="#f2f2f2"/>
    <path id="Path_277578" data-name="Path 277578" d="M2000.371,298.089a88.071,88.071,0,0,0-15.242-6.487,110.008,110.008,0,0,0-17.738-3.454c-17.757-2.146-42.539-3.976-65.4-4.586-4.744-.136-11.5,3.276-11.521,8.133l-.009,4.509c1.318-3.094,5.009-4.244,7.362-4.287,17.123-.344,69.924,2.03,86.4,6.709a38.388,38.388,0,0,0,10.983,1.5,8.253,8.253,0,0,0,5.166-2.043" transform="translate(-939.448 21.216)" fill="#f2f2f2"/>
    <path id="Path_277579" data-name="Path 277579" d="M2193.1,537.142c-.752-2.648-1.619-5.2-2.627-7.768a46.115,46.115,0,0,0-29.215-27.391,82.615,82.615,0,0,0-24.54-3.379,139.148,139.148,0,0,0-20.148,1.587,46.783,46.783,0,0,0-31.343,19.161,68.755,68.755,0,0,0-9.058,17.789,3.374,3.374,0,0,1-3.316-3.982,67.108,67.108,0,0,1,4.387-14.436,49.539,49.539,0,0,1,15.337-20.184c6.612-5.2,15.6-8.844,25.476-10.787,2.692-.529,3.272-2.493,1.251-4.351-4.237-3.9-9.173-5.917-17.444-7.007-18.7-2.791-93.555-4.171-152.615-5.308-13.325.2-26.7-2.823-33.474-9.847-1.777-1.843-1.138-3.311,1.422-3.263l157.648,2.9c50.966,1.606,78.156,3.195,110.509,12-5.3-.193-9.465-.345-9.611-.345-3.682.03-4.633,2.339-2.065,5.278,1.334,1.527,2.618,3.01,3.869,4.437-8.119-.19-13.589.247-19.212,1.825-5.007,1.406-5.049,3.721-.047,5.153a60.78,60.78,0,0,1,14.187,5.97,50.363,50.363,0,0,1,17.429,17.836,52.928,52.928,0,0,1,6.493,20.383,3.244,3.244,0,0,1-3.293,3.735" transform="translate(-952.621 -73.301)" fill="#f2f2f2"/>
    <path id="Path_277580" data-name="Path 277580" d="M1598.738,505.268H1395.4a21.433,21.433,0,0,1-13.653-4.911h230.646a21.433,21.433,0,0,1-13.653,4.911" transform="translate(-663.773 -96.268)" fill="#f2f2f2"/>
    <path id="Path_277581" data-name="Path 277581" d="M2047.2,686.312H1891.029a4.409,4.409,0,1,1,0-8.817H2047.2a4.409,4.409,0,0,1,0,8.817" transform="translate(-937.367 -192.26)" fill="#e6e6e6"/>
    <path id="Path_277582" data-name="Path 277582" d="M2048.263,686.753h-158.3a4.45,4.45,0,0,1-3.267-1.427,4.4,4.4,0,0,0,4.329,5.231H2047.2a4.4,4.4,0,0,0,4.329-5.231,4.45,4.45,0,0,1-3.267,1.427" transform="translate(-937.367 -196.503)" fill="gray"/>
    <path id="Path_277583" data-name="Path 277583" d="M2071.269,680.469H1948.449a2.973,2.973,0,0,1-2.973-2.973h128.766a2.973,2.973,0,0,1-2.973,2.973" transform="translate(-969.262 -192.26)" fill="#333"/>
    <path id="Path_277584" data-name="Path 277584" d="M2068.066,469.857c-.038,0-2.309-.021-130.893-.773a7.579,7.579,0,0,1-7.488-7.4l-1.312-74.095a31.09,31.09,0,0,1,1.251-9.275l1.181-4.035V310.763a7.232,7.232,0,0,1,7.609-7.211c32.214,1.648,55.04,4.46,60.1,5.6a62.912,62.912,0,0,1,22.823,10.042c2.2,1.55,45.125,34.639,50.107,39.352a21.25,21.25,0,0,1,5.459,9.3c2.227,8,5.378,68.929-2.082,97.2-.806,3.055-3.269,4.808-6.759,4.808M1938.092,303.99a6.782,6.782,0,0,0-6.841,6.773v63.581l-1.2,4.1a30.606,30.606,0,0,0-1.233,9.142l1.311,74.094a7.13,7.13,0,0,0,7.045,6.962c126.8.742,130.851.772,130.9.773,3.266,0,5.572-1.631,6.323-4.476,7.443-28.213,4.3-88.988,2.083-96.969a20.786,20.786,0,0,0-5.342-9.1c-4.971-4.7-47.852-37.759-50.052-39.308a62.473,62.473,0,0,0-22.662-9.972c-5.052-1.137-27.842-3.943-60.027-5.589-.1,0-.2-.007-.3-.007" transform="translate(-959.991 10.385)" fill="#999"/>
    <path id="Path_277585" data-name="Path 277585" d="M2491.206,538.194l-20.281,17.185.375.248,20.247-17.157Z" transform="translate(-1254.005 -116.772)" fill="#999"/>
    <path id="Path_277586" data-name="Path 277586" d="M2487.825,554.017l-7.353,6.231c.122.085.241.173.361.26l7.3-6.185c-.1-.1-.2-.2-.307-.306" transform="translate(-1259.179 -125.346)" fill="#ccc"/>
    <path id="Path_277587" data-name="Path 277587" d="M2377.438,454.3c-28.562-7.375-75.677-8.259-93.69-15.655-1.633-.776-2.343-1.088-3.075-1.531h-.8a22.315,22.315,0,0,0,3.708,1.93c18.117,7.436,65.186,8.3,93.749,15.675,10.088,2.633,14.494,5.239,17.745,7.282l.841.024c-2.142-1.364-6.288-4.542-18.478-7.724" transform="translate(-1150.474 -61.995)" fill="#999"/>
    <path id="Path_277588" data-name="Path 277588" d="M2254.385,464.12c.33,3.712.633,8.283.868,13.415l.44.019c-.234-5.13-.537-9.7-.866-13.426Z" transform="translate(-1136.661 -76.631)" fill="#ccc"/>
    <path id="Path_277589" data-name="Path 277589" d="M1930.587,462.262l1.178-4.029-.461-.008-1.145,3.912a31.174,31.174,0,0,0-.8,3.475c.138.076.275.152.416.227a30.8,30.8,0,0,1,.817-3.576" transform="translate(-960.525 -73.436)" fill="#ccc"/>
  </g>
</svg>
